<svg width="24" height="24" viewBox="0 0 24 24" fill="none" xmlns="http://www.w3.org/2000/svg">
<path d="M8.3813 1.75813H14.8079L8.13662 21.5245C8.06811 21.7276 7.93757 21.9042 7.7634 22.0292C7.58923 22.1543 7.38021 22.2216 7.1658 22.2215H2.16447C2.00203 22.2215 1.84193 22.1828 1.6974 22.1087C1.55287 22.0346 1.42806 21.9271 1.33328 21.7952C1.23847 21.6633 1.17645 21.5107 1.15239 21.3501C1.12833 21.1894 1.1429 21.0253 1.19491 20.8714L7.41048 2.45505C7.47906 2.2519 7.60961 2.07538 7.78376 1.95031C7.95791 1.82523 8.16689 1.75791 8.3813 1.75781V1.75813Z" fill="url(#paint0_linear_5599_16493)"/>
<path d="M17.72 15.0313H7.52901C7.43424 15.0311 7.34162 15.0594 7.26323 15.1127C7.18483 15.1659 7.1243 15.2416 7.08953 15.3297C7.05475 15.4179 7.04735 15.5145 7.06829 15.6069C7.08923 15.6993 7.13754 15.7833 7.20691 15.8478L13.7554 21.96C13.9461 22.1378 14.1971 22.2366 14.4578 22.2368H20.2283L17.72 15.0313Z" fill="#0078D4"/>
<path d="M8.38165 1.77345C8.16487 1.77253 7.95348 1.841 7.77841 1.96884C7.60333 2.09668 7.47375 2.27718 7.40861 2.48395L1.203 20.87C1.14764 21.0245 1.13028 21.19 1.15239 21.3526C1.1745 21.5152 1.23543 21.67 1.33003 21.8041C1.42464 21.9382 1.55013 22.0475 1.69589 22.1228C1.84166 22.1981 2.00342 22.2372 2.1675 22.2368H7.29804C7.48913 22.2027 7.66773 22.1185 7.8156 21.9928C7.96347 21.867 8.07529 21.7043 8.13965 21.5211L9.37711 17.874L13.7976 21.9969C13.9828 22.1501 14.2152 22.2349 14.4555 22.2368H20.2046L17.6831 15.0313L10.3328 15.0331L14.8315 1.77345H8.38165Z" fill="url(#paint1_linear_5599_16493)"/>
<path d="M16.5898 2.46941C16.5213 2.26658 16.3909 2.09034 16.2169 1.96549C16.043 1.84064 15.8343 1.77347 15.6202 1.77344H8.45801C8.67208 1.77351 8.88073 1.84069 9.05463 1.96554C9.22852 2.09038 9.35889 2.2666 9.42741 2.46941L15.6431 20.8866C15.6952 21.0405 15.7098 21.2046 15.6858 21.3653C15.6618 21.526 15.5998 21.6787 15.5051 21.8107C15.4104 21.9427 15.2855 22.0502 15.1409 22.1244C14.9964 22.1986 14.8362 22.2372 14.6737 22.2372H21.8363C21.9987 22.237 22.1588 22.1983 22.3032 22.1241C22.4477 22.0499 22.5725 21.9423 22.6672 21.8104C22.7619 21.6784 22.8238 21.5258 22.8479 21.3652C22.8719 21.2046 22.8574 21.0405 22.8055 20.8866L16.5898 2.46941Z" fill="url(#paint2_linear_5599_16493)"/>
<defs>
<linearGradient id="paint0_linear_5599_16493" x1="10.7237" y1="3.27454" x2="4.04956" y2="22.9913" gradientUnits="userSpaceOnUse">
<stop stop-color="#114A8B"/>
<stop offset="1" stop-color="#0669BC"/>
</linearGradient>
<linearGradient id="paint1_linear_5599_16493" x1="12.8088" y1="12.4784" x2="11.265" y2="13.0003" gradientUnits="userSpaceOnUse">
<stop stop-opacity="0.3"/>
<stop offset="0.071" stop-opacity="0.2"/>
<stop offset="0.321" stop-opacity="0.1"/>
<stop offset="0.623" stop-opacity="0.05"/>
<stop offset="1" stop-opacity="0"/>
</linearGradient>
<linearGradient id="paint2_linear_5599_16493" x1="11.9595" y1="2.71472" x2="19.2857" y2="22.2329" gradientUnits="userSpaceOnUse">
<stop stop-color="#3CCBF4"/>
<stop offset="1" stop-color="#2892DF"/>
</linearGradient>
</defs>
</svg>
