<svg width="24" height="24" viewBox="0 0 24 24" fill="none" xmlns="http://www.w3.org/2000/svg">
<rect width="24" height="24" rx="6.4" fill="#DBEBFF"/>
<g clip-path="url(#clip0_629_10661)">
<path d="M5.28188 5.50407C5.21601 5.50322 5.15075 5.5168 5.09069 5.54385C5.03063 5.57091 4.97721 5.61078 4.9342 5.66067C4.89119 5.71057 4.85962 5.76927 4.84171 5.83267C4.8238 5.89606 4.81998 5.96261 4.83053 6.02763L6.74651 17.6589C6.77038 17.8012 6.84364 17.9306 6.95342 18.0243C7.0632 18.118 7.20248 18.17 7.3468 18.1712H16.5385C16.6467 18.1726 16.7518 18.1351 16.8347 18.0655C16.9175 17.9959 16.9726 17.8989 16.9899 17.7921L18.9104 6.03215C18.9209 5.96712 18.9171 5.90057 18.8992 5.83718C18.8813 5.77379 18.8497 5.71508 18.8067 5.66519C18.7637 5.61529 18.7103 5.57542 18.6502 5.54836C18.5902 5.52131 18.5249 5.50773 18.459 5.50858L5.28188 5.50407ZM13.3498 13.9105H10.416L9.62161 9.76255H14.0606L13.3498 13.9105Z" fill="#2684FF"/>
<path d="M18.2978 9.76245H14.0619L13.351 13.9104H10.4172L6.95312 18.0244C7.06292 18.1194 7.20291 18.1721 7.34806 18.1734H16.542C16.6502 18.1747 16.7553 18.1372 16.8382 18.0676C16.921 17.9981 16.9761 17.901 16.9934 17.7942L18.2978 9.76245Z" fill="url(#paint0_linear_629_10661)"/>
</g>
<defs>
<linearGradient id="paint0_linear_629_10661" x1="19.2772" y1="10.9224" x2="12.2768" y2="16.3883" gradientUnits="userSpaceOnUse">
<stop offset="0.18" stop-color="#0052CC"/>
<stop offset="1" stop-color="#2684FF"/>
</linearGradient>
<clipPath id="clip0_629_10661">
<rect width="14.4" height="12.7448" fill="white" transform="translate(4.66553 5.46399)"/>
</clipPath>
</defs>
</svg>
