<svg width="24" height="24" viewBox="0 0 24 24" fill="none" xmlns="http://www.w3.org/2000/svg">
<rect width="24" height="24" rx="6.4" fill="#E7E7E7"/>
<g clip-path="url(#clip0_629_10655)">
<path d="M12.3004 5.24988C8.48799 5.24988 5.40039 8.33748 5.40039 12.1499C5.40039 15.2033 7.37559 17.7821 10.1182 18.6959C10.4632 18.7565 10.5922 18.5495 10.5922 18.3683C10.5922 18.2045 10.5838 17.6615 10.5838 17.0831C8.85039 17.4023 8.40219 16.6607 8.26419 16.2731C8.18619 16.0745 7.85019 15.4619 7.55619 15.2981C7.31499 15.1685 6.96999 14.8493 7.54779 14.8409C8.09139 14.8325 8.47959 15.3413 8.60919 15.5483C9.23019 16.5923 10.222 16.2983 10.6186 16.1171C10.6786 15.6689 10.8598 15.3671 11.0584 15.1943C9.52299 15.0221 7.91919 14.4269 7.91919 11.7875C7.91919 11.0375 8.18619 10.4165 8.62599 9.93348C8.55699 9.76068 8.31579 9.05328 8.69499 8.10468C8.69499 8.10468 9.27279 7.92348 10.5928 8.81208C11.1448 8.65668 11.731 8.57928 12.3178 8.57928C12.904 8.57928 13.4908 8.65728 14.0428 8.81208C15.3628 7.91508 15.94 8.10468 15.94 8.10468C16.3198 9.05328 16.078 9.76068 16.009 9.93348C16.4488 10.4165 16.7164 11.0285 16.7164 11.7875C16.7164 14.4353 15.1036 15.0215 13.5682 15.1943C13.8184 15.4103 14.0338 15.8243 14.0338 16.4711C14.0338 17.3939 14.0254 18.1355 14.0254 18.3683C14.0254 18.5495 14.155 18.7655 14.4994 18.6965C17.2258 17.7821 19.2004 15.1943 19.2004 12.1499C19.2004 8.33748 16.1128 5.24988 12.3004 5.24988Z" fill="black"/>
</g>
<defs>
<clipPath id="clip0_629_10655">
<rect width="14.4" height="14.4" fill="white" transform="translate(4.80029 4.79993)"/>
</clipPath>
</defs>
</svg>
