<svg width="22" height="17" viewBox="0 0 22 17" fill="none" xmlns="http://www.w3.org/2000/svg">
<g clip-path="url(#clip0_629_10016)">
<path d="M13.9092 4.98879H14.5683L16.4461 3.42397L16.5385 2.76001C13.0446 0.1902 7.71089 0.467099 4.62711 3.3787C3.76971 4.18752 3.1477 5.1495 2.80908 6.1907C3.01823 6.11903 3.25001 6.10771 3.46821 6.1575L7.22288 5.64143C7.22288 5.64143 7.41392 5.37811 7.51261 5.39471C9.18306 3.8661 11.9943 3.68804 13.9228 4.98879H13.9092Z" fill="#EA4335"/>
<path d="M19.1175 6.19042C18.6857 4.86628 17.8002 3.67569 16.5679 2.76501L13.9332 4.9606C15.046 5.71811 15.6798 6.85966 15.6526 8.05705V8.44712C16.9482 8.44712 17.9976 9.32234 17.9976 10.4013C17.9976 11.4809 16.9473 12.3554 15.6526 12.3554H10.9617L10.4937 12.7508V15.095L10.9617 15.4851H15.6526C18.3416 15.5024 20.7273 14.05 21.5259 11.9103C22.3226 9.76975 21.3448 7.44591 19.1175 6.19042Z" fill="#4285F4"/>
<path d="M6.26469 15.4645H10.9555V12.3356H6.26469C5.9306 12.3356 5.60013 12.276 5.29592 12.1598L4.63679 12.3296L2.74632 13.8944L2.58154 14.4436C3.64176 15.1106 4.93557 15.469 6.26469 15.4645Z" fill="#34A853"/>
<path d="M6.26654 5.31253C3.66081 5.32535 1.35296 6.71589 0.521808 8.7734C-0.309345 10.8309 0.519091 13.1019 2.5843 14.4253L5.30501 12.1581C4.12437 11.7137 3.60015 10.5563 4.13343 9.57241C4.6667 8.58855 6.05558 8.1517 7.23621 8.59609C7.75591 8.79226 8.17239 9.13933 8.40779 9.57241L11.1285 7.30515C9.97051 6.04439 8.17149 5.30725 6.26654 5.31253Z" fill="#FBBC05"/>
</g>
<defs>
<clipPath id="clip0_629_10016">
<rect width="21.601" height="15.6" fill="white" transform="translate(0.199219 0.799805)"/>
</clipPath>
</defs>
</svg>
