<svg width="20" height="22" viewBox="0 0 20 22" fill="none" xmlns="http://www.w3.org/2000/svg">
<g clip-path="url(#clip0_629_9709)">
<path d="M9.91263 21.6439C9.62548 21.6439 9.3403 21.5685 9.08855 21.4236L6.46546 19.8706C6.07368 19.6515 6.26485 19.574 6.39407 19.5294C6.91645 19.3465 7.02246 19.3052 7.58004 18.9885C7.63865 18.9551 7.71535 18.9669 7.77534 19.0023L9.79049 20.1981C9.86326 20.2374 9.96652 20.2374 10.034 20.1981L17.8912 15.6627C17.964 15.6214 18.0112 15.5368 18.0112 15.4503V6.38347C18.0112 6.293 17.964 6.21236 17.8897 6.16713L10.0356 1.63568C9.96278 1.59242 9.86641 1.59242 9.79364 1.63568L1.9411 6.16713C1.86499 6.2104 1.8166 6.29497 1.8166 6.3815V15.4483C1.8166 15.5349 1.86381 15.6175 1.93854 15.6588L4.09019 16.9018C5.25846 17.4859 5.9724 16.7975 5.9724 16.1052V7.15641C5.9724 7.02857 6.0727 6.93023 6.20054 6.93023H7.19573C7.31963 6.93023 7.42191 7.02857 7.42191 7.15641V16.1092C7.42191 17.6668 6.57226 18.5617 5.09521 18.5617C4.64089 18.5617 4.28294 18.5617 3.28382 18.07L1.22264 16.8821C0.713244 16.5871 0.39856 16.0364 0.39856 15.4483V6.3815C0.39856 5.79147 0.713244 5.24078 1.22264 4.94969L9.08776 0.412352C9.58536 0.131104 10.2462 0.131104 10.7399 0.412352L18.5951 4.95166C19.1026 5.24471 19.4192 5.79344 19.4192 6.38347V15.4503C19.4192 16.0384 19.1026 16.5871 18.5951 16.8821L10.7399 21.4194C10.4881 21.565 10.2029 21.6397 9.91184 21.6397" fill="#689F63"/>
<path d="M12.3405 15.397C8.90259 15.397 8.18176 13.8188 8.18176 12.4952C8.18176 12.3693 8.28325 12.269 8.40932 12.269H9.42417C9.53628 12.269 9.63068 12.3506 9.64839 12.4614C9.80179 13.4955 10.2581 14.0171 12.337 14.0171C13.993 14.0171 14.6971 13.643 14.6971 12.7648C14.6971 12.2594 14.4965 11.8837 11.9239 11.632C9.77229 11.4196 8.44276 10.9456 8.44276 9.22464C8.44276 7.63942 9.78016 6.69537 12.0203 6.69537C14.5358 6.69537 15.7827 7.56862 15.9401 9.44492C15.946 9.50982 15.9224 9.57276 15.8791 9.61996C15.8359 9.6652 15.7749 9.69273 15.7119 9.69273H14.6912C14.585 9.69273 14.4925 9.618 14.4709 9.51572C14.2251 8.4281 13.6311 8.07998 12.0164 8.07998C10.2089 8.07998 9.99847 8.70935 9.99847 9.18137C9.99847 9.75371 10.2463 9.92088 12.6851 10.2434C15.1003 10.564 16.2469 11.0164 16.2469 12.7137C16.2469 14.4248 14.819 15.4062 12.3291 15.4062M21.8994 5.79066H22.163C22.3793 5.79066 22.4206 5.63921 22.4206 5.55071C22.4206 5.31863 22.2613 5.31863 22.1728 5.31863H21.9014L21.8994 5.79066ZM21.5788 5.04722H22.163C22.3636 5.04722 22.7569 5.04722 22.7569 5.49564C22.7569 5.80836 22.5563 5.87326 22.4363 5.9126C22.6704 5.92833 22.6861 6.08174 22.7176 6.29808C22.7333 6.43379 22.7589 6.66784 22.8061 6.74651H22.4462C22.4363 6.66784 22.3813 6.23515 22.3813 6.21155C22.3577 6.11517 22.3242 6.06797 22.2043 6.06797H21.9073V6.74847H21.5788V5.04722ZM20.8767 5.89293C20.8767 6.59703 21.4451 7.1674 22.1433 7.1674C22.8474 7.1674 23.4158 6.58523 23.4158 5.89293C23.4158 5.18686 22.8395 4.62633 22.1413 4.62633C21.453 4.62633 20.8747 5.17899 20.8747 5.89096M23.6597 5.89686C23.6597 6.73077 22.9772 7.41128 22.1453 7.41128C21.3192 7.41128 20.6308 6.73864 20.6308 5.89686C20.6308 5.03935 21.3349 4.38245 22.1453 4.38245C22.9615 4.38245 23.6577 5.04131 23.6577 5.89686" fill="#689F63"/>
</g>
<defs>
<clipPath id="clip0_629_9709">
<rect width="19.1084" height="21.6" fill="white" transform="translate(0.400269 0.201294)"/>
</clipPath>
</defs>
</svg>
