<svg width="24" height="24" viewBox="0 0 24 24" fill="none" xmlns="http://www.w3.org/2000/svg">
<g clip-path="url(#clip0_629_9803)">
<path d="M22.7173 14.1344C22.5878 13.7541 22.2485 13.4892 21.8098 13.4256C21.6029 13.3957 21.3659 13.4084 21.0856 13.4645C20.5969 13.5622 20.2343 13.5994 19.9697 13.6066C20.9685 11.9717 21.7806 10.1072 22.2481 8.35215C23.0041 5.51424 22.6001 4.2214 22.128 3.63662C20.8787 2.08878 19.0559 1.25726 16.8569 1.23182C15.6839 1.21791 14.6541 1.44248 14.1169 1.60397C13.6167 1.5184 13.0789 1.47062 12.5146 1.46179C11.4568 1.44542 10.5222 1.66901 9.72354 2.12854C9.28142 1.98357 8.57183 1.77921 7.75238 1.6488C5.82508 1.34202 4.27174 1.58106 3.13554 2.35932C1.75972 3.30161 1.12193 4.93879 1.23989 7.22538C1.27735 7.95136 1.69619 10.1602 2.35567 12.2551C2.73468 13.4591 3.13883 14.459 3.55691 15.2272C4.14982 16.3165 4.78423 16.958 5.49644 17.1884C5.89562 17.3173 6.62091 17.4076 7.38374 16.7916C7.48043 16.9051 7.60944 17.018 7.78064 17.1228C7.99808 17.2557 8.26394 17.3643 8.52947 17.4287C9.48637 17.6607 10.3827 17.6027 11.1474 17.2775C11.1521 17.4094 11.1557 17.5354 11.1588 17.6442C11.1638 17.8207 11.1689 17.9937 11.1756 18.1555C11.2209 19.2497 11.2976 20.1004 11.5251 20.6956C11.5376 20.7284 11.5544 20.7783 11.5721 20.8312C11.6856 21.1681 11.8754 21.7321 12.3582 22.1738C12.8581 22.6313 13.4628 22.7717 14.0166 22.7717C14.2944 22.7717 14.5594 22.7363 14.7919 22.688C15.6204 22.5158 16.5615 22.2535 17.2422 21.3137C17.8858 20.4253 18.1987 19.0871 18.2553 16.9786C18.2626 16.919 18.2694 16.862 18.2759 16.8078L18.2894 16.6964L18.441 16.7093L18.4801 16.7118C19.324 16.7491 20.3559 16.5756 20.9896 16.2902C21.4904 16.0649 23.0951 15.2434 22.7173 14.1344Z" fill="#1D1D1D"/>
<path d="M21.2745 14.3496C18.7651 14.8515 18.5926 14.0278 18.5926 14.0278C21.242 10.216 22.3496 5.37754 21.3938 4.19334C18.7863 0.96307 14.2727 2.49079 14.1973 2.53039L14.1731 2.53464C13.6773 2.43483 13.1226 2.37544 12.4989 2.36554C11.3636 2.34754 10.5023 2.65416 9.84873 3.13472C9.84873 3.13472 1.79682 -0.0815618 2.17136 7.17973C2.25101 8.72447 4.45489 18.8682 7.08351 15.8043C8.04429 14.6839 8.97267 13.7366 8.97267 13.7366C9.43369 14.0336 9.98567 14.1851 10.5643 14.1307L10.6093 14.0937C10.5953 14.2328 10.6017 14.3689 10.6273 14.53C9.95007 15.2635 10.1491 15.3923 8.79539 15.6625C7.42556 15.9363 8.23025 16.4235 8.75565 16.551C9.3926 16.7054 10.8661 16.9241 11.8617 15.5727L11.8221 15.7269C12.0874 15.933 12.2737 17.0672 12.2424 18.0955C12.2112 19.1237 12.1904 19.8296 12.3994 20.381C12.6086 20.9324 12.8169 22.173 14.5965 21.8034C16.0835 21.4944 16.8541 20.6937 16.9613 19.358C17.0373 18.4086 17.2095 18.549 17.2203 17.7L17.3584 17.2982C17.5177 16.011 17.3838 15.5958 18.2998 15.7889L18.5226 15.8079C19.1967 15.8376 20.0793 15.7027 20.5973 15.4693C21.7125 14.9675 22.374 14.1295 21.2743 14.3496H21.2745Z" fill="#336791"/>
<path d="M10.32 7.87124C10.0939 7.84073 9.8891 7.86895 9.78549 7.94503C9.72727 7.98782 9.70921 8.0374 9.70432 8.07151C9.69132 8.16191 9.75663 8.26188 9.79679 8.31342C9.91036 8.45937 10.0762 8.55967 10.2404 8.58176C10.2642 8.58503 10.2879 8.58651 10.3115 8.58651C10.5853 8.58651 10.8343 8.37977 10.8562 8.2272C10.8836 8.03609 10.5975 7.90863 10.32 7.87124ZM17.8112 7.87729C17.7896 7.7275 17.5147 7.6848 17.2538 7.71997C16.9932 7.75515 16.7406 7.8692 16.7617 8.01932C16.7786 8.13606 16.996 8.33535 17.2533 8.33535C17.2751 8.33535 17.2971 8.33396 17.3192 8.33093C17.491 8.30786 17.617 8.20208 17.6769 8.14113C17.768 8.0482 17.8209 7.94462 17.8112 7.87729Z" fill="white"/>
<path d="M22.108 14.2927C22.0124 14.0121 21.7044 13.9219 21.1927 14.0243C19.6736 14.3283 19.1295 14.1177 18.9509 13.9902C20.1317 12.246 21.1031 10.1376 21.6272 8.17048C21.8754 7.23867 22.0125 6.37328 22.0238 5.66791C22.0362 4.89375 21.9001 4.32484 21.6197 3.97731C20.4889 2.57631 18.8292 1.82481 16.8203 1.80419C15.4391 1.78914 14.2722 2.13184 14.046 2.22821C13.5696 2.11335 13.0503 2.04283 12.4849 2.03383C11.4481 2.01755 10.5519 2.25824 9.80988 2.74885C9.48757 2.63252 8.65462 2.35526 7.63596 2.19614C5.87489 1.92126 4.47544 2.12955 3.47678 2.81553C2.28515 3.63412 1.73503 5.09737 1.84159 7.16455C1.87745 7.86001 2.28616 9.99951 2.93113 12.0484C3.78011 14.7452 4.703 16.2719 5.67399 16.5859C5.78764 16.6227 5.91868 16.6484 6.06321 16.6484C6.41742 16.6484 6.8517 16.4936 7.30352 15.9669C7.85462 15.3259 8.4247 14.7004 9.01304 14.0913C9.39476 14.29 9.8141 14.4009 10.243 14.412C10.2438 14.4229 10.2449 14.4338 10.2459 14.4446C10.1721 14.5299 10.0998 14.6165 10.0291 14.7043C9.73192 15.0701 9.67007 15.1463 8.71351 15.3372C8.4414 15.3917 7.71873 15.5361 7.7081 16.0273C7.69663 16.5639 8.5624 16.7893 8.66103 16.8132C9.00478 16.8967 9.33595 16.9378 9.65176 16.9378C10.4198 16.9378 11.0958 16.693 11.6359 16.2194C11.6193 18.1326 11.7016 20.0179 11.9385 20.5923C12.1326 21.0625 12.6066 22.2117 14.1039 22.2116C14.3236 22.2116 14.5654 22.1868 14.8315 22.1315C16.3942 21.8067 17.0728 21.137 17.3353 19.6606C17.4758 18.8716 17.7168 16.9874 17.8302 15.9767C18.0695 16.0491 18.3776 16.0822 18.7106 16.0822C19.4052 16.0822 20.2067 15.9391 20.7093 15.7129C21.2739 15.4586 22.2928 14.8347 22.108 14.2927ZM18.3866 7.46315C18.3815 7.76151 18.3391 8.03239 18.2942 8.31512C18.2459 8.61921 18.1959 8.93361 18.1833 9.31525C18.1709 9.68667 18.2188 10.0728 18.265 10.4463C18.3585 11.2006 18.4544 11.9771 18.0831 12.7433C18.0214 12.6374 17.9665 12.5278 17.9186 12.4154C17.8724 12.3069 17.7722 12.1326 17.6334 11.8914C17.0935 10.9526 15.8291 8.75403 16.4764 7.8569C16.6691 7.58988 17.1584 7.31532 18.3866 7.46315ZM16.8979 2.40836C18.6979 2.44689 20.1219 3.09982 21.13 4.34889C21.9032 5.30697 21.0518 9.66638 18.5869 13.4273C18.5621 13.3967 18.5372 13.3662 18.5122 13.3359L18.4809 13.2981C19.1179 12.2782 18.9933 11.269 18.8825 10.3744C18.8369 10.0072 18.7939 9.66041 18.8048 9.33464C18.8162 8.9894 18.8632 8.69325 18.9088 8.40691C18.9647 8.05407 19.0217 7.68895 19.006 7.25855C19.0177 7.21339 19.0225 7.16005 19.0163 7.09673C18.9762 6.68399 18.4902 5.44875 17.4997 4.33073C16.9578 3.7192 16.1676 3.03486 15.0887 2.57329C15.5528 2.48002 16.1874 2.39306 16.8979 2.40836ZM6.82537 15.5814C6.32756 16.1618 5.98381 16.0505 5.87075 16.014C5.13416 15.7758 4.27944 14.2662 3.52589 11.8725C2.87384 9.8012 2.4928 7.7184 2.46259 7.13436C2.36742 5.28725 2.8292 3.99997 3.8352 3.30819C5.47242 2.18248 8.16415 2.85627 9.24575 3.19799C9.23023 3.21288 9.21403 3.22679 9.19867 3.24192C7.42376 4.97989 7.46586 7.94927 7.47025 8.1308C7.47008 8.20083 7.47615 8.29999 7.48442 8.43636C7.51497 8.93581 7.57184 9.86534 7.41996 10.918C7.27889 11.8962 7.58989 12.8536 8.27308 13.5448C8.34319 13.6156 8.41688 13.683 8.49389 13.7467C8.1898 14.0625 7.52889 14.7608 6.82537 15.5814ZM8.72204 13.1277C8.1714 12.5706 7.92132 11.7956 8.03581 11.0014C8.19613 9.88947 8.13698 8.92101 8.10517 8.40069C8.1007 8.32788 8.09673 8.26407 8.09445 8.21376C8.35374 7.99083 9.55532 7.36662 10.4122 7.55699C10.8032 7.64379 11.0415 7.90198 11.1406 8.34605C11.6532 10.6452 11.2084 11.6034 10.851 12.3735C10.7773 12.5321 10.7077 12.6821 10.6483 12.8372L10.6022 12.9571C10.4856 13.2603 10.3771 13.5422 10.3099 13.8099C9.7245 13.8083 9.15505 13.5658 8.72204 13.1276V13.1277ZM8.8119 16.2283C8.64095 16.1869 8.48722 16.115 8.39702 16.0553C8.47237 16.021 8.60644 15.9742 8.83898 15.9277C9.96429 15.7031 10.1381 15.5446 10.5176 15.0774C10.6046 14.9702 10.7032 14.8488 10.8398 14.7009L10.84 14.7007C11.0434 14.4798 11.1365 14.5173 11.3053 14.5852C11.442 14.64 11.5753 14.8063 11.6293 14.9892C11.6548 15.0756 11.6835 15.2395 11.5896 15.3671C10.7968 16.4434 9.64155 16.4296 8.8119 16.2283ZM14.7012 21.542C13.3245 21.828 12.8371 21.1469 12.5159 20.3684C12.3086 19.8657 12.2066 17.5991 12.2789 15.0959C12.2799 15.0626 12.275 15.0305 12.2655 15.0002C12.2571 14.9405 12.2442 14.8813 12.2271 14.8234C12.1196 14.4591 11.8576 14.1545 11.5433 14.0282C11.4184 13.978 11.1892 13.886 10.9138 13.9543C10.9726 13.7197 11.0744 13.4547 11.1849 13.1678L11.2312 13.0471C11.2833 12.911 11.3488 12.7701 11.418 12.6209C11.792 11.8152 12.3043 10.7117 11.7483 8.21867C11.5401 7.28489 10.8447 6.82888 9.79048 6.93482C9.15851 6.99823 8.58029 7.24546 8.29189 7.38723C8.22988 7.41767 8.17318 7.44712 8.12019 7.47575C8.20068 6.53494 8.50477 4.77668 9.64231 3.66422C10.3586 2.96393 11.3124 2.61804 12.4746 2.63669C14.7646 2.67301 16.233 3.81246 17.0617 4.76203C17.7759 5.58021 18.1626 6.40445 18.3169 6.84901C17.1563 6.73455 16.367 6.95667 15.9669 7.51134C15.0964 8.71787 16.4431 11.0596 17.0903 12.1851C17.2091 12.3913 17.3115 12.5696 17.3437 12.6453C17.5545 13.1406 17.8274 13.4713 18.0266 13.7126C18.0877 13.7866 18.1469 13.8583 18.1919 13.921C17.8404 14.0192 17.2091 14.2463 17.2666 15.3811C17.2202 15.9504 16.8902 18.6163 16.7226 19.5582C16.5012 20.8025 16.029 21.266 14.7012 21.5421V21.542ZM20.4475 15.1661C20.088 15.3278 19.4865 15.4491 18.9151 15.4752C18.284 15.5038 17.9627 15.4067 17.8871 15.3469C17.8517 14.6397 18.1231 14.5658 18.4104 14.4876C18.4555 14.4753 18.4996 14.4633 18.5421 14.4489C18.5685 14.4698 18.5975 14.4905 18.6292 14.5108C19.1364 14.8354 20.0412 14.8704 21.3186 14.6147L21.3326 14.612C21.1603 14.7682 20.8655 14.9778 20.4475 15.1661Z" fill="white"/>
</g>
<defs>
<clipPath id="clip0_629_9803">
<rect width="21.6" height="21.6" fill="white" transform="translate(1.20044 1.20117)"/>
</clipPath>
</defs>
</svg>
