<svg width="24" height="24" viewBox="0 0 24 24" fill="none" xmlns="http://www.w3.org/2000/svg">
<path d="M12.3392 0.307541C11.3823 0.310567 10.7189 0.394889 9.91702 0.53334C7.54905 0.945668 7.11767 1.81152 7.11767 3.40718V5.846H12.6561V7.07673H6.90721H4.23028C2.60813 7.07673 1.18841 7.84106 0.738595 9.67305C0.230253 11.7758 0.207487 13.0927 0.738595 15.2885C1.14164 16.926 2.02964 18.1536 3.6524 18.1536H5.88749V15.0127C5.88749 13.1875 7.54045 11.3845 9.43454 11.3845H13.8875C15.4401 11.3845 16.9644 10.2386 16.9644 8.69089V3.40718C16.9644 1.9063 15.882 0.783832 14.3687 0.532103C14.4063 0.528457 13.2881 0.303827 12.3392 0.307541ZM9.27209 2.76906C9.77733 2.76906 10.1952 3.18565 10.1952 3.69337C10.1952 4.20598 9.77733 4.61521 9.27209 4.61521C8.757 4.61521 8.34901 4.2066 8.34901 3.69337C8.34901 3.1875 8.757 2.76906 9.27209 2.76906Z" fill="url(#paint0_linear_629_9717)"/>
<path d="M11.7426 23.6921C12.6995 23.689 13.3629 23.6048 14.1647 23.4663C16.5327 23.054 16.9641 22.1881 16.9641 20.5924V18.1537H11.4257V16.9229H17.1752H19.8521C21.4743 16.9229 22.8939 16.1586 23.3438 14.3266C23.8521 12.2238 23.8749 10.9069 23.3438 8.71119C22.9401 7.07364 22.0521 5.84595 20.4293 5.84595H18.1942V8.98693C18.1942 10.8121 16.5413 12.6152 14.6472 12.6152H10.1943C8.64165 12.6152 7.11731 13.7611 7.11731 15.3088V20.5924C7.11731 22.0934 8.19982 23.2158 9.71301 23.4675C9.67546 23.4712 10.7937 23.6958 11.7426 23.6921ZM14.8103 21.2306C14.305 21.2306 13.8872 20.8139 13.8872 20.3063C13.8872 19.7937 14.305 19.3845 14.8103 19.3845C15.3253 19.3845 15.7333 19.7931 15.7333 20.3063C15.7333 20.8122 15.3247 21.2306 14.8103 21.2306Z" fill="url(#paint1_linear_629_9717)"/>
<defs>
<linearGradient id="paint0_linear_629_9717" x1="3.97676" y1="5.21338" x2="13.7342" y2="13.4011" gradientUnits="userSpaceOnUse">
<stop stop-color="#26ABE7"/>
<stop offset="1" stop-color="#086DBF"/>
</linearGradient>
<linearGradient id="paint1_linear_629_9717" x1="19.2847" y1="20.5604" x2="12.0127" y2="10.1746" gradientUnits="userSpaceOnUse">
<stop stop-color="#FEB705"/>
<stop offset="1" stop-color="#FFDA1C"/>
</linearGradient>
</defs>
</svg>
