<svg width="60" height="56" viewBox="0 0 60 56" fill="black" xmlns="http://www.w3.org/2000/svg">
<path fill-rule="evenodd" clip-rule="evenodd" d="M5.34957 0.117433C3.39747 0.577654 1.65977 2.51506 1.18922 4.75591C0.938791 5.94904 0.936037 38.902 1.18635 40.0833C1.67951 42.411 3.42915 44.3134 5.4695 44.7402C6.22697 44.8987 13.2748 44.9138 13.6851 44.7579C14.3836 44.4923 14.5889 43.4679 14.0513 42.9299L13.7511 42.6295L9.76528 42.5721C5.93099 42.5169 5.76147 42.5051 5.30573 42.2613C4.66291 41.9175 3.94848 41.0778 3.63137 40.2936L3.36936 39.6455V28.6277V17.61L28.3028 17.5811L53.2362 17.552V23.4055V29.259L52.8058 29.2615C52.289 29.2645 51.4566 29.6226 51.0393 30.0214L50.7361 30.311L49.949 29.97C49.5161 29.7824 49.0503 29.5952 48.9138 29.5541C48.7168 29.4948 48.6492 29.3567 48.5848 28.8815C48.4482 27.8726 47.9564 27.1488 47.1124 26.7149C46.5542 26.4279 44.5489 26.3023 43.5439 26.4914C42.2871 26.7281 41.4629 27.6012 41.3361 28.8309L41.2725 29.4465L40.2518 29.8779L39.231 30.3093L38.8747 30.0096C38.2643 29.496 37.8412 29.334 37.1113 29.3344C36.6352 29.3346 36.281 29.409 35.9636 29.5754C35.3456 29.8993 33.4343 31.8505 33.2138 32.3827C32.8521 33.2557 33.1063 34.518 33.7875 35.2308L34.0653 35.5215L33.6224 36.5507L33.1795 37.5797L32.5631 37.6413C31.859 37.7118 31.3899 37.9336 30.9555 38.4015C30.3458 39.0583 30.241 39.4207 30.1894 41.0514L30.1411 42.5721H26.5878H23.0345L22.699 42.9076C22.1359 43.4707 22.2912 44.3687 23.0159 44.7393C23.1892 44.8279 24.803 44.8675 28.2397 44.8675H33.2128L33.6507 45.9034L34.0885 46.9393L33.749 47.3259C33.021 48.155 32.8537 49.3472 33.3338 50.2841C33.634 50.87 35.458 52.636 36.0317 52.8963C36.7446 53.2197 37.5589 53.1998 38.2783 52.8413C38.5979 52.6822 38.945 52.457 39.0499 52.3411C39.2341 52.1376 39.276 52.1446 40.258 52.5444L41.2752 52.9586L41.3985 53.7013C41.5585 54.664 41.9735 55.2588 42.7786 55.6795C43.3589 55.9826 43.4739 56 44.8866 56C45.7084 56 46.5776 55.941 46.8181 55.869C47.7889 55.5781 48.497 54.651 48.6139 53.5178C48.6489 53.1788 48.7349 52.9007 48.805 52.8999C48.875 52.8991 49.3437 52.7189 49.8464 52.4994L50.7604 52.1004L51.1089 52.4377C51.8388 53.144 53.0704 53.3427 53.9822 52.9013C54.5812 52.6112 56.5055 50.6603 56.7356 50.1096C57.1083 49.2176 56.8846 48.0221 56.2157 47.3309L55.8784 46.9824L56.2775 46.0684C56.4969 45.5657 56.6771 45.0899 56.6779 45.0109C56.6787 44.9228 56.8399 44.8675 57.0963 44.8675C57.8329 44.8675 58.4327 44.6123 58.9779 44.0673C59.6573 43.3878 59.778 42.9414 59.778 41.1086C59.778 39.6959 59.7606 39.5809 59.4575 39.0006C59.0188 38.1611 58.4009 37.7393 57.4771 37.6489L56.7691 37.5797L56.5061 36.8787C56.3614 36.4932 56.1618 36.0207 56.0625 35.8287C55.8985 35.5117 55.8985 35.4659 56.0619 35.3302C56.1609 35.248 56.3914 34.92 56.5743 34.6013C57.1816 33.5426 56.9955 32.3886 56.0482 31.3401L55.6566 30.9066L55.622 18.0034L55.5875 5.10022L55.2738 4.17312C54.7439 2.60676 53.6179 1.17147 52.4527 0.576965C51.2502 -0.0364716 52.4598 -0.00789419 28.2213 0.00450079C15.6891 0.0110426 5.58967 0.060852 5.34957 0.117433ZM50.9786 2.47168C51.6762 2.70936 52.4216 3.4409 52.8441 4.30258L53.1788 4.98545L53.212 10.1213L53.2452 15.2572H28.2719H3.29877L3.33538 10.2361C3.37108 5.32413 3.37762 5.20087 3.63275 4.56689C4.05613 3.51435 4.90369 2.67929 5.83619 2.39559C5.99434 2.3475 16.0951 2.30366 28.2824 2.29826C48.2902 2.28931 50.4931 2.30618 50.9786 2.47168ZM10.7719 5.10504C10.0615 5.30049 9.10077 5.91071 8.74419 6.39308C8.09563 7.27026 7.96067 7.691 7.96216 8.83019C7.96342 9.73342 8.00875 10.0118 8.22658 10.4526C8.64996 11.3093 9.22163 11.8859 10.0539 12.2956C10.7244 12.6257 10.9319 12.6722 11.7421 12.6734C12.5161 12.6747 12.7772 12.6227 13.3542 12.3528C14.2422 11.9373 15.0429 11.0924 15.367 10.229C15.7036 9.33219 15.6534 7.98664 15.2527 7.16903C14.4434 5.51752 12.51 4.62691 10.7719 5.10504ZM20.8634 5.07818C18.8738 5.64043 17.6566 7.52642 18.0162 9.49011C18.2548 10.7938 19.0368 11.7878 20.2839 12.3725C21.1954 12.7999 22.4827 12.7976 23.4134 12.367C24.2365 11.9862 24.9424 11.2819 25.3305 10.4539C25.5845 9.91211 25.6344 9.64562 25.6344 8.83019C25.6344 7.99456 25.5884 7.76101 25.3138 7.20163C24.5058 5.55642 22.5214 4.60958 20.8634 5.07818ZM34.6146 5.0527C32.2591 5.60784 30.9212 8.21779 31.8806 10.3864C32.1963 11.1002 33.072 11.9876 33.826 12.3579L34.4716 12.6749H40.5543C46.6351 12.6749 46.6373 12.6748 47.2017 12.4145C48.0668 12.0156 48.6788 11.4481 49.1039 10.6503C50.0392 8.89549 49.5166 6.79225 47.861 5.64858C46.8584 4.95595 46.5553 4.9268 40.5015 4.93954C37.5007 4.94597 34.8516 4.99681 34.6146 5.0527ZM12.7431 7.64337C13.4484 8.2816 13.4746 9.32094 12.8009 9.93828C12.2714 10.4236 11.7207 10.527 11.1515 10.2479C10.0868 9.72607 9.88912 8.42414 10.7555 7.64004C11.2358 7.2053 12.261 7.20702 12.7431 7.64337ZM22.8225 7.66587C23.5114 8.17854 23.5448 9.27859 22.8915 9.93197C22.3846 10.4388 21.8311 10.533 21.1884 10.2219C20.5774 9.92611 20.2977 9.47404 20.2977 8.7821C20.2977 8.34461 20.3627 8.18209 20.6725 7.84399C21.2582 7.20484 22.1084 7.13437 22.8225 7.66587ZM46.5639 7.55615C47.2678 8.05814 47.4608 8.96699 47.0077 9.64528C46.4727 10.4462 46.5496 10.4366 40.7121 10.4367C37.8321 10.4368 35.3085 10.4034 35.104 10.3626C34.6049 10.2627 34.0039 9.64264 33.9074 9.1279C33.8116 8.6173 34.1547 7.76801 34.5402 7.56177C35.1028 7.26062 35.5594 7.23847 40.7839 7.25936L46.178 7.28082L46.5639 7.55615ZM19.1854 24.2103C19.0471 24.266 18.8509 24.4382 18.7495 24.5931C18.5353 24.9198 16.2678 34.2653 16.2433 34.9222C16.2296 35.2861 16.2922 35.4219 16.5999 35.6969C17.2609 36.2876 18.1763 36.0401 18.4507 35.1964C18.7165 34.3794 20.7707 25.6198 20.775 25.2846C20.7813 24.8051 20.5914 24.4777 20.1852 24.2677C19.8117 24.0745 19.5584 24.06 19.1854 24.2103ZM11.506 25.16C11.0197 25.4406 7.79196 29.189 7.65504 29.632C7.42011 30.3924 7.62726 30.7592 9.45816 32.823C10.3792 33.8611 11.238 34.8009 11.3666 34.9113C11.5092 35.0336 11.7893 35.1122 12.083 35.1122C12.7439 35.1122 13.1821 34.6682 13.1821 33.9987C13.1821 33.5595 13.0855 33.4201 11.6901 31.8456C10.8695 30.9197 10.1981 30.1248 10.1981 30.0791C10.1981 30.0334 10.4951 29.6612 10.858 29.252C13.2592 26.5443 13.1821 26.6473 13.1821 26.1507C13.1821 25.2771 12.2538 24.7285 11.506 25.16ZM24.2222 25.2982C23.8165 25.6396 23.7061 26.0919 23.9138 26.5619C23.9975 26.7513 24.6895 27.6034 25.4516 28.4556C26.2138 29.3077 26.8378 30.0377 26.8383 30.0775C26.839 30.1174 26.1904 30.8791 25.3969 31.7703C23.6663 33.714 23.4924 34.1439 24.1649 34.8164C24.3887 35.0403 24.5755 35.1112 24.9327 35.1085C25.1925 35.1065 25.4873 35.0419 25.5881 34.965C26.0944 34.5785 29.2663 30.8761 29.3761 30.5433C29.6139 29.8228 29.4367 29.4571 28.1248 27.9608C27.4502 27.1914 26.5603 26.2134 26.1472 25.7872C25.4912 25.1107 25.3434 25.0125 24.979 25.0125C24.7018 25.0125 24.4477 25.1085 24.2222 25.2982ZM46.2356 29.632C46.2357 30.1941 46.3008 30.5943 46.4364 30.8657C46.6182 31.2298 46.7393 31.3007 47.7273 31.6223C48.327 31.8175 49.2426 32.192 49.762 32.4543C50.2813 32.7168 50.8249 32.9316 50.9701 32.9316C51.2978 32.9316 51.6456 32.7036 52.3475 32.0289L52.8934 31.5042L53.7534 32.3584C54.2264 32.8283 54.6134 33.2676 54.6134 33.3347C54.6134 33.4018 54.3558 33.7104 54.0409 34.0206C53.7259 34.3308 53.4116 34.7565 53.3423 34.9666C53.2267 35.3167 53.2643 35.4468 53.7917 36.5215C54.1083 37.1666 54.4737 38.0592 54.6036 38.505C54.9443 39.6739 55.1759 39.8547 56.4276 39.9299L57.4253 39.9898L57.4582 41.1205C57.4797 41.8557 57.4447 42.3074 57.3581 42.4116C57.2652 42.5238 56.9574 42.5721 56.3363 42.5721C55.1423 42.5721 54.9684 42.715 54.5586 44.0323C54.3863 44.5864 54.013 45.4876 53.729 46.0351C53.2545 46.9502 53.223 47.062 53.3404 47.418C53.4108 47.6309 53.7259 48.0589 54.0409 48.3692C54.3558 48.6794 54.6134 48.988 54.6134 49.055C54.6134 49.2101 52.9834 50.8354 52.8279 50.8354C52.7641 50.8354 52.4335 50.5534 52.0931 50.2089C51.2353 49.3403 51.0343 49.3176 49.8121 49.9516C49.2651 50.2353 48.3674 50.6045 47.8172 50.7721C46.5014 51.1725 46.3501 51.3568 46.3501 52.5583C46.3501 53.1793 46.3018 53.4871 46.1897 53.5801C46.0855 53.6666 45.6337 53.7016 44.8985 53.6802L43.7678 53.6472L43.7079 52.6496C43.6329 51.3999 43.4521 51.168 42.2831 50.822C41.8372 50.69 40.958 50.3244 40.3293 50.0092C39.275 49.481 39.1543 49.4459 38.7793 49.5583C38.5518 49.6265 38.1219 49.9346 37.8037 50.2578C37.4907 50.5755 37.1798 50.8354 37.1128 50.8354C37.0456 50.8354 36.6124 50.4545 36.1498 49.9889C35.2201 49.0528 35.1999 48.9282 35.8978 48.4313C36.3114 48.1368 36.7096 47.5128 36.7096 47.1592C36.7096 47.0142 36.4824 46.4522 36.2048 45.9103C35.9272 45.3683 35.5853 44.5375 35.4451 44.0641C35.0732 42.809 34.8719 42.6428 33.6375 42.5721L32.6353 42.5147L32.6028 41.2236L32.5703 39.9324L33.4062 39.9322C33.9723 39.9321 34.3714 39.8673 34.6429 39.7313C35.008 39.5486 35.0803 39.423 35.4527 38.3257C35.6777 37.6629 36.0525 36.7642 36.2856 36.3286C36.5188 35.893 36.7096 35.4386 36.7096 35.3187C36.7096 34.9722 36.4247 34.5209 35.858 33.9693C35.5689 33.6879 35.3324 33.4051 35.3324 33.3409C35.3324 33.1504 36.8598 31.6691 37.0562 31.6691C37.1556 31.6691 37.441 31.8799 37.6905 32.1376C38.2152 32.6795 38.6461 32.9316 39.0476 32.9316C39.2036 32.9316 39.7706 32.7018 40.3074 32.4209C40.8443 32.1401 41.6618 31.7995 42.124 31.6638C42.6964 31.496 43.0651 31.3106 43.2801 31.0824C43.5689 30.7757 43.5957 30.6712 43.5957 29.8501C43.5957 29.3566 43.6301 28.9184 43.6722 28.8764C43.7142 28.8343 44.3082 28.7999 44.9921 28.7999H46.2353L46.2356 29.632ZM43.2514 34.3742C41.323 34.8784 39.526 36.3455 38.6815 38.105C38.0917 39.3341 37.9274 40.1926 37.9966 41.6831C38.04 42.6179 38.1172 43.0237 38.3733 43.6624C39.2146 45.7614 40.6923 47.1846 42.8112 47.9371C43.8895 48.3198 45.772 48.3666 46.8666 48.0377C49.2578 47.3193 51.1055 45.4706 51.8136 43.0886C52.1229 42.0476 52.1006 40.3366 51.7634 39.2438C51.0292 36.8641 48.9922 34.9151 46.6662 34.3666C45.7646 34.1541 44.079 34.1577 43.2514 34.3742ZM46.9754 36.9288C49.9255 38.3094 50.6436 42.0996 48.4038 44.468C46.1285 46.8737 42.2345 46.276 40.7611 43.2948C40.4047 42.5736 40.3326 42.2977 40.2903 41.4929C40.2285 40.314 40.437 39.531 41.0611 38.5986C41.6264 37.754 42.4903 37.0895 43.4701 36.7458C44.5646 36.3619 45.9145 36.4323 46.9754 36.9288ZM17.7599 42.7443C17.0943 43.106 17.058 44.058 17.6896 44.5895C17.9887 44.8411 18.1259 44.8811 18.513 44.8292C19.1454 44.7443 19.4943 44.3309 19.4943 43.6662C19.4943 43.2489 19.436 43.1172 19.1412 42.8692C18.7434 42.5345 18.2312 42.4881 17.7599 42.7443Z" fill="black"/>
</svg>
