<svg width="56" height="56" viewBox="0 0 56 56" fill="none" xmlns="http://www.w3.org/2000/svg">
<g clip-path="url(#clip0_2250_6322)">
<path d="M10.3638 0.116211C9.62391 0.118987 8.91511 0.413879 8.39162 0.936702C7.86814 1.45952 7.57236 2.16796 7.56865 2.9078V32.714C7.56865 33.9567 9.4344 33.9567 9.4344 32.714V9.4344H46.6825V32.714C46.6543 33.9813 48.5764 33.9813 48.5483 32.714V2.9078C48.5446 2.16856 48.2493 1.46066 47.7265 0.937936C47.2038 0.415213 46.4959 0.119912 45.7567 0.116211H10.3638ZM10.3638 1.98196H45.7567C46.2847 1.98196 46.6825 2.37623 46.6825 2.9078V7.56865H9.4344V2.9078C9.4344 2.37623 9.82867 1.97844 10.3602 1.97844L10.3638 1.98196ZM12.226 3.84067C12.1035 3.84067 11.9822 3.8648 11.869 3.91168C11.7558 3.95856 11.653 4.02728 11.5663 4.1139C11.4797 4.20053 11.411 4.30337 11.3641 4.41655C11.3172 4.52973 11.2931 4.65104 11.2931 4.77355C11.2931 4.89605 11.3172 5.01736 11.3641 5.13054C11.411 5.24372 11.4797 5.34656 11.5663 5.43319C11.653 5.51981 11.7558 5.58853 11.869 5.63541C11.9822 5.68229 12.1035 5.70642 12.226 5.70642C12.4734 5.70642 12.7107 5.60814 12.8856 5.43319C13.0606 5.25824 13.1589 5.02096 13.1589 4.77355C13.1589 4.52613 13.0606 4.28885 12.8856 4.1139C12.7107 3.93896 12.4734 3.84067 12.226 3.84067ZM15.9504 3.84067C15.8279 3.84067 15.7066 3.8648 15.5934 3.91168C15.4803 3.95856 15.3774 4.02728 15.2908 4.1139C15.2042 4.20053 15.1355 4.30337 15.0886 4.41655C15.0417 4.52973 15.0176 4.65104 15.0176 4.77355C15.0176 4.89605 15.0417 5.01736 15.0886 5.13054C15.1355 5.24372 15.2042 5.34656 15.2908 5.43319C15.3774 5.51981 15.4803 5.58853 15.5934 5.63541C15.7066 5.68229 15.8279 5.70642 15.9504 5.70642C16.1979 5.70642 16.4351 5.60814 16.6101 5.43319C16.785 5.25824 16.8833 5.02096 16.8833 4.77355C16.8833 4.52613 16.785 4.28885 16.6101 4.1139C16.4351 3.93896 16.1979 3.84067 15.9504 3.84067ZM19.6749 3.84067C19.5524 3.84067 19.4311 3.8648 19.3179 3.91168C19.2047 3.95856 19.1019 4.02728 19.0153 4.1139C18.9286 4.20053 18.8599 4.30337 18.813 4.41655C18.7662 4.52973 18.742 4.65104 18.742 4.77355C18.742 4.89605 18.7662 5.01736 18.813 5.13054C18.8599 5.24372 18.9286 5.34656 19.0153 5.43319C19.1019 5.51981 19.2047 5.58853 19.3179 5.63541C19.4311 5.68229 19.5524 5.70642 19.6749 5.70642C19.9223 5.70642 20.1596 5.60814 20.3345 5.43319C20.5095 5.25824 20.6078 5.02096 20.6078 4.77355C20.6078 4.52613 20.5095 4.28885 20.3345 4.1139C20.1596 3.93896 19.9223 3.84067 19.6749 3.84067ZM32.6683 3.84067C31.4115 3.92868 31.496 5.7381 32.714 5.70642H43.8944C45.1089 5.67826 45.1089 3.86883 43.8944 3.84067H32.6683ZM2.91484 5.70642C2.17466 5.70919 1.46549 6.00397 0.941451 6.52669C0.417408 7.04942 0.120843 7.75784 0.116211 8.498V42.0287C0.116211 43.56 1.38351 44.8203 2.91484 44.8203H53.2056C53.9448 44.8166 54.6527 44.5213 55.1755 43.9986C55.6982 43.4758 55.9935 42.7679 55.9972 42.0287V8.498C55.9935 7.75877 55.6982 7.05087 55.1755 6.52815C54.6527 6.00542 53.9448 5.71012 53.2056 5.70642H51.3398C50.0725 5.67826 50.0725 7.59681 51.3398 7.56865H53.2056C53.7372 7.56865 54.1314 7.96292 54.1314 8.498V35.5091H1.97844V8.498C1.97844 7.96292 2.38327 7.56865 2.91484 7.56865H4.77002C6.03733 7.59681 6.03733 5.67826 4.77002 5.7029L2.91484 5.70642ZM30.8659 13.1413C30.6663 13.1395 30.4713 13.2018 30.3098 13.319C30.1482 13.4362 30.0285 13.6022 29.9682 13.7925L24.378 30.5561C23.9837 31.7354 25.7509 32.3268 26.1487 31.1475L31.7389 14.3804C31.7875 14.2405 31.8022 14.091 31.7816 13.9443C31.7609 13.7976 31.7057 13.6579 31.6204 13.5368C31.535 13.4157 31.4221 13.3167 31.2909 13.2479C31.1597 13.1791 31.014 13.1425 30.8659 13.1413ZM34.9142 18.5273L39.6419 22.47L34.9142 26.4162C33.9039 27.2048 35.1501 28.6974 36.1111 27.8455L41.6908 23.1881C41.7951 23.1006 41.879 22.9912 41.9366 22.8678C41.9941 22.7443 42.024 22.6097 42.024 22.4735C42.024 22.3373 41.9941 22.2027 41.9366 22.0793C41.879 21.9558 41.7951 21.8465 41.6908 21.7589L36.1076 17.0981C35.9275 16.9474 35.6981 16.8684 35.4634 16.8763C34.5833 16.9537 34.2665 18.0028 34.9142 18.5308V18.5273ZM20.5867 16.8728C20.3758 16.8797 20.1735 16.9579 20.0128 17.0945L14.4262 21.7554C14.3218 21.843 14.2379 21.9523 14.1803 22.0758C14.1228 22.1992 14.0929 22.3338 14.0929 22.47C14.0929 22.6062 14.1228 22.7408 14.1803 22.8643C14.2379 22.9877 14.3218 23.0971 14.4262 23.1846L20.0093 27.842C20.9704 28.7361 22.2553 27.1942 21.1992 26.4127L16.4679 22.47L21.2062 18.5308C21.3571 18.4074 21.4655 18.2398 21.5163 18.0517C21.5671 17.8635 21.5576 17.6641 21.4893 17.4816C21.4209 17.299 21.2971 17.1425 21.1352 17.0339C20.9733 16.9254 20.7815 16.8667 20.5867 16.8728ZM1.97844 37.3749H54.1349V42.0287C54.1383 42.1514 54.1167 42.2734 54.0714 42.3875C54.0261 42.5015 53.9581 42.6052 53.8715 42.6921C53.7849 42.779 53.6815 42.8475 53.5677 42.8932C53.4538 42.9389 53.3318 42.961 53.2091 42.9581H2.91484C2.79142 42.9619 2.66851 42.9406 2.55362 42.8953C2.43873 42.8501 2.33427 42.7819 2.24663 42.6949C2.15899 42.6079 2.09 42.504 2.04389 42.3894C1.99778 42.2749 1.97551 42.1521 1.97844 42.0287V37.3749ZM29.9717 39.2371H26.1522C24.9624 39.3779 25.0433 41.0606 26.1945 41.0923H29.9224C31.2003 41.2085 31.3059 39.2618 29.9717 39.2371ZM22.8361 46.6121C22.6533 46.6084 22.4734 46.6584 22.3189 46.7561C22.1643 46.8537 22.0418 46.9946 21.9666 47.1613C21.516 48.1223 20.7134 49.2453 19.3264 50.4105H17.8127C17.0731 50.416 16.3656 50.713 15.8436 51.237C15.3217 51.7609 15.0274 52.4696 15.0246 53.2091V55.0643C15.0211 55.5783 15.4365 55.9972 15.9504 56.0007H40.1665C40.2893 56.0007 40.4109 55.9765 40.5243 55.9294C40.6377 55.8823 40.7407 55.8132 40.8274 55.7262C40.914 55.6392 40.9827 55.536 41.0293 55.4224C41.076 55.3088 41.0998 55.1871 41.0993 55.0643V53.2091C41.0947 52.4689 40.7989 51.7603 40.2758 51.2365C39.7527 50.7128 39.0444 50.416 38.3042 50.4105H36.7905C35.407 49.2488 34.6009 48.1223 34.1503 47.1613C34.1041 47.0421 34.0339 46.9337 33.9441 46.8428C33.8542 46.7518 33.7467 46.6803 33.6281 46.6327C33.5094 46.5851 33.3823 46.5624 33.2545 46.5659C33.1268 46.5695 33.0011 46.5992 32.8853 46.6534C32.7695 46.7075 32.6661 46.7849 32.5815 46.8807C32.4968 46.9765 32.4328 47.0886 32.3933 47.2102C32.3538 47.3317 32.3397 47.4601 32.3519 47.5873C32.364 47.7146 32.4022 47.838 32.4641 47.9498C32.8267 48.7243 33.3794 49.5621 34.1292 50.4105H21.9877C22.734 49.5656 23.2902 48.7278 23.6528 47.9463C23.7205 47.8059 23.7519 47.6507 23.7442 47.4951C23.7365 47.3394 23.6899 47.1881 23.6087 47.0551C23.5275 46.922 23.4142 46.8114 23.2793 46.7335C23.1443 46.6555 22.9919 46.6125 22.8361 46.6086V46.6121ZM17.8127 52.2727H38.3007C38.4245 52.2698 38.5475 52.2921 38.6624 52.3381C38.7774 52.3841 38.8818 52.453 38.9693 52.5406C39.0568 52.6281 39.1257 52.7325 39.1717 52.8474C39.2178 52.9623 39.24 53.0854 39.2371 53.2091V54.1385H16.8833V53.2091C16.8833 52.6776 17.2811 52.2727 17.8127 52.2727Z" fill="black"/>
</g>
<defs>
<clipPath id="clip0_2250_6322">
<rect width="55.9998" height="56" fill="white"/>
</clipPath>
</defs>
</svg>
