<svg width="24" height="24" viewBox="0 0 24 24" fill="none" xmlns="http://www.w3.org/2000/svg">
<g clip-path="url(#clip0_629_10008)">
<path d="M7.16792 10.5979C7.16792 10.8583 7.19608 11.0695 7.24535 11.2244C7.30167 11.3793 7.37207 11.5482 7.47063 11.7313C7.50583 11.7876 7.51991 11.8439 7.51991 11.8932C7.51991 11.9636 7.47767 12.034 7.38615 12.1044L6.94264 12.4001C6.87928 12.4423 6.81593 12.4634 6.75961 12.4634C6.68921 12.4634 6.61881 12.4282 6.54841 12.3649C6.44985 12.2593 6.36538 12.1466 6.29498 12.034C6.22458 11.9143 6.15418 11.7805 6.07674 11.6186C5.52764 12.2663 4.83774 12.5901 4.00704 12.5901C3.41569 12.5901 2.94402 12.4212 2.59907 12.0833C2.25412 11.7453 2.07812 11.2948 2.07812 10.7316C2.07812 10.1332 2.28932 9.64748 2.71875 9.28141C3.14818 8.91534 3.7184 8.73231 4.44351 8.73231C4.68286 8.73231 4.92925 8.75343 5.18973 8.78862C5.4502 8.82382 5.71771 8.88014 5.99931 8.9435V8.42959C5.99931 7.89457 5.88667 7.52146 5.66843 7.30322C5.44316 7.08499 5.06301 6.97939 4.52094 6.97939C4.27455 6.97939 4.02112 7.00755 3.76064 7.07091C3.50017 7.13427 3.24674 7.2117 3.00034 7.31026C2.8877 7.35954 2.80323 7.3877 2.75395 7.40178C2.70467 7.41586 2.66947 7.4229 2.64131 7.4229C2.54275 7.4229 2.49347 7.3525 2.49347 7.20466V6.85971C2.49347 6.74708 2.50755 6.6626 2.54275 6.61332C2.57795 6.56404 2.64131 6.51476 2.73987 6.46548C2.98626 6.33877 3.28193 6.23317 3.62689 6.14869C3.97184 6.05717 4.33791 6.01493 4.7251 6.01493C5.56284 6.01493 6.1753 6.20501 6.56953 6.58516C6.95672 6.96531 7.15384 7.54258 7.15384 8.31696V10.5979H7.16792ZM4.30975 11.6679C4.54206 11.6679 4.78142 11.6257 5.03485 11.5412C5.28828 11.4567 5.51356 11.3018 5.70363 11.0906C5.81627 10.9569 5.90075 10.8091 5.94299 10.6401C5.98523 10.4711 6.01339 10.267 6.01339 10.0276V9.73196C5.80923 9.68268 5.591 9.64044 5.36572 9.61228C5.14045 9.58412 4.92221 9.57004 4.70398 9.57004C4.23231 9.57004 3.88736 9.66156 3.65505 9.85164C3.42273 10.0417 3.31009 10.3092 3.31009 10.6612C3.31009 10.9921 3.39457 11.2385 3.57057 11.4074C3.73952 11.5834 3.98592 11.6679 4.30975 11.6679ZM9.96273 12.4282C9.83601 12.4282 9.75153 12.4071 9.69521 12.3578C9.63889 12.3156 9.58962 12.217 9.54738 12.0833L7.89302 6.64148C7.85078 6.50068 7.82966 6.40916 7.82966 6.35989C7.82966 6.24725 7.88598 6.18389 7.99862 6.18389H8.68852C8.82228 6.18389 8.91379 6.20501 8.96307 6.25429C9.01939 6.29653 9.06163 6.39508 9.10387 6.52884L10.2866 11.1892L11.3848 6.52884C11.42 6.38804 11.4622 6.29653 11.5185 6.25429C11.5748 6.21205 11.6734 6.18389 11.8001 6.18389H12.3633C12.4971 6.18389 12.5886 6.20501 12.6449 6.25429C12.7012 6.29653 12.7505 6.39508 12.7787 6.52884L13.8909 11.2455L15.1088 6.52884C15.1511 6.38804 15.2004 6.29653 15.2496 6.25429C15.306 6.21205 15.3975 6.18389 15.5242 6.18389H16.1789C16.2915 6.18389 16.3549 6.24021 16.3549 6.35989C16.3549 6.39508 16.3478 6.43028 16.3408 6.47252C16.3338 6.51476 16.3197 6.57108 16.2915 6.64852L14.5949 12.0903C14.5527 12.2311 14.5034 12.3226 14.4471 12.3649C14.3908 12.4071 14.2993 12.4353 14.1796 12.4353H13.5742C13.4404 12.4353 13.3489 12.4141 13.2926 12.3649C13.2362 12.3156 13.187 12.2241 13.1588 12.0833L12.0676 7.54258L10.9835 12.0762C10.9483 12.217 10.9061 12.3085 10.8497 12.3578C10.7934 12.4071 10.6949 12.4282 10.5682 12.4282H9.96273ZM19.0089 12.6183C18.6428 12.6183 18.2768 12.576 17.9248 12.4916C17.5728 12.4071 17.2982 12.3156 17.1152 12.21C17.0025 12.1466 16.9251 12.0762 16.897 12.0129C16.8688 11.9495 16.8547 11.8791 16.8547 11.8157V11.4567C16.8547 11.3089 16.911 11.2385 17.0166 11.2385C17.0589 11.2385 17.1011 11.2455 17.1433 11.2596C17.1856 11.2737 17.2489 11.3018 17.3193 11.33C17.5587 11.4356 17.8192 11.5201 18.0937 11.5764C18.3753 11.6327 18.6499 11.6609 18.9315 11.6609C19.375 11.6609 19.7199 11.5834 19.9593 11.4286C20.1986 11.2737 20.3253 11.0484 20.3253 10.7598C20.3253 10.5627 20.262 10.4007 20.1353 10.267C20.0086 10.1332 19.7692 10.0136 19.4242 9.90092L18.4035 9.58412C17.8896 9.42221 17.5094 9.18285 17.2771 8.86606C17.0448 8.55631 16.9251 8.21136 16.9251 7.84529C16.9251 7.54962 16.9885 7.28914 17.1152 7.06387C17.2419 6.83859 17.4109 6.64148 17.6221 6.4866C17.8332 6.32469 18.0726 6.20501 18.3542 6.12053C18.6358 6.03605 18.9315 6.00085 19.2412 6.00085C19.3961 6.00085 19.558 6.00789 19.7129 6.02901C19.8748 6.05013 20.0226 6.07829 20.1705 6.10645C20.3113 6.14165 20.445 6.17685 20.5717 6.21909C20.6985 6.26133 20.797 6.30357 20.8674 6.34581C20.966 6.40212 21.0364 6.45844 21.0786 6.5218C21.1208 6.57812 21.142 6.65556 21.142 6.75412V7.08499C21.142 7.23282 21.0856 7.31026 20.98 7.31026C20.9237 7.31026 20.8322 7.2821 20.7125 7.22578C20.3113 7.04275 19.8607 6.95123 19.3609 6.95123C18.9596 6.95123 18.6428 7.01459 18.4246 7.14835C18.2064 7.2821 18.0937 7.48626 18.0937 7.77489C18.0937 7.972 18.1641 8.14096 18.3049 8.27472C18.4457 8.40847 18.7062 8.54223 19.0793 8.66191L20.0789 8.9787C20.5858 9.14062 20.9519 9.36589 21.1701 9.65452C21.3884 9.94316 21.494 10.274 21.494 10.6401C21.494 10.9428 21.4306 11.2174 21.3109 11.4567C21.1842 11.6961 21.0152 11.9073 20.797 12.0762C20.5788 12.2522 20.3183 12.3789 20.0156 12.4705C19.6988 12.569 19.3679 12.6183 19.0089 12.6183Z" fill="#252F3E"/>
<path fill-rule="evenodd" clip-rule="evenodd" d="M20.7305 15.9667C18.3668 17.6774 14.9327 18.5855 11.98 18.5855C7.84179 18.5855 4.11312 17.086 1.29687 14.5939C1.07415 14.3968 1.27532 14.1293 1.54114 14.2842C4.58729 16.016 8.34469 17.0649 12.2314 17.0649C14.8537 17.0649 17.7346 16.5299 20.3856 15.4317C20.7808 15.2557 21.1184 15.6851 20.7305 15.9667Z" fill="#FF9900"/>
<path fill-rule="evenodd" clip-rule="evenodd" d="M21.7133 14.8669C21.4116 14.4867 19.7161 14.6838 18.9474 14.7753C18.7175 14.8035 18.6816 14.6064 18.8899 14.4586C20.2406 13.5293 22.4605 13.7968 22.7192 14.1066C22.9778 14.4234 22.6473 16.5987 21.3829 17.6406C21.1889 17.8025 21.0021 17.718 21.0883 17.5068C21.3757 16.8099 22.0151 15.24 21.7133 14.8669Z" fill="#FF9900"/>
</g>
<defs>
<clipPath id="clip0_629_10008">
<rect width="21.6009" height="13.2" fill="white" transform="translate(1.20068 6.00098)"/>
</clipPath>
</defs>
</svg>
