<svg width="24" height="24" viewBox="0 0 24 24" fill="none" xmlns="http://www.w3.org/2000/svg">
<g clip-path="url(#clip0_7888_4250)">
<path d="M15.0399 9.00093L12.8797 11.0122L10.8745 6.96597L11.9104 4.63943C12.1722 4.17534 12.6004 4.16921 12.8622 4.63943L15.0399 9.00093Z" fill="#FFA000"/>
<path d="M12.8821 11.0142L4.80176 18.5297L10.8769 6.96875L12.8821 11.0142Z" fill="#F57F17"/>
<path d="M17.4099 5.93067C17.797 5.56203 18.1954 5.68637 18.2961 6.21L20.3967 18.4311L13.4293 22.614C13.185 22.7506 12.5371 22.804 12.5371 22.804C12.5371 22.804 11.9478 22.7322 11.7218 22.6079L4.80176 18.5327L17.4099 5.93067Z" fill="#FFCA28"/>
<path d="M10.8769 6.96957L4.80176 18.5305L7.5092 1.63262C7.61077 1.10899 7.90761 1.05558 8.17555 1.51966L10.8769 6.96957Z" fill="#FFA000"/>
</g>
<defs>
<clipPath id="clip0_7888_4250">
<rect width="15.6" height="21.6" fill="white" transform="translate(4.80029 1.20312)"/>
</clipPath>
</defs>
</svg>
