<svg width="24" height="24" viewBox="0 0 24 24" fill="none" xmlns="http://www.w3.org/2000/svg">
<rect width="23.0659" height="24" rx="6.4" fill="#DBEBFF"/>
<path d="M18.2936 11.5967L12.0971 5.40023L11.4966 4.7998L6.83207 9.46438L4.69907 11.5967C4.59252 11.7038 4.53271 11.8487 4.53271 11.9998C4.53271 12.1509 4.59252 12.2958 4.69907 12.4029L8.96057 16.6644L11.4966 19.1998L16.1606 14.5352L16.2332 14.4632L18.2936 12.4061C18.347 12.3531 18.3893 12.29 18.4183 12.2206C18.4472 12.1511 18.4621 12.0766 18.4621 12.0014C18.4621 11.9262 18.4472 11.8517 18.4183 11.7822C18.3893 11.7128 18.347 11.6497 18.2936 11.5967ZM11.4966 14.1289L9.36749 11.9998L11.4966 9.87066L13.6251 11.9998L11.4966 14.1289Z" fill="#2684FF"/>
<path d="M11.4965 9.87088C10.8269 9.20142 10.4494 8.29418 10.4465 7.34731C10.4436 6.40045 10.8155 5.49092 11.4811 4.81738L6.82227 9.47424L9.35769 12.0097L11.4965 9.87088Z" fill="url(#paint0_linear_629_10630)"/>
<path d="M13.6309 11.9941L11.4966 14.1291C12.1687 14.8014 12.5463 15.7132 12.5463 16.6639C12.5463 17.6145 12.1687 18.5263 11.4966 19.1986L16.1682 14.5296L13.6309 11.9941Z" fill="url(#paint1_linear_629_10630)"/>
<defs>
<linearGradient id="paint0_linear_629_10630" x1="11.1153" y1="7.71667" x2="8.14205" y2="10.6892" gradientUnits="userSpaceOnUse">
<stop offset="0.18" stop-color="#0052CC"/>
<stop offset="1" stop-color="#2684FF"/>
</linearGradient>
<linearGradient id="paint1_linear_629_10630" x1="11.9029" y1="16.2576" x2="14.8703" y2="13.2908" gradientUnits="userSpaceOnUse">
<stop offset="0.18" stop-color="#0052CC"/>
<stop offset="1" stop-color="#2684FF"/>
</linearGradient>
</defs>
</svg>
