<svg width="20" height="21" viewBox="0 0 20 21" fill="none" xmlns="http://www.w3.org/2000/svg">
<g clip-path="url(#clip0_629_10080)">
<path d="M0.383789 2.94055C0.383789 1.83598 1.27922 0.940552 2.38379 0.940552H17.6198C18.7244 0.940552 19.6198 1.83598 19.6198 2.94055V18.1766C19.6198 19.2811 18.7244 20.1765 17.6198 20.1765H2.38379C1.27922 20.1765 0.383789 19.2811 0.383789 18.1765V2.94055Z" fill="#FFF2C5"/>
<path d="M18.0462 15.5903C17.9054 14.7127 17.3331 13.9758 15.6381 13.2882C15.0493 13.0176 14.3928 12.8238 14.1972 12.3776C14.1277 12.118 14.1186 11.9717 14.1625 11.8145C14.2886 11.3043 14.8975 11.1452 15.3802 11.2915C15.6911 11.3957 15.9855 11.6353 16.1629 12.0174C16.993 11.4799 16.9912 11.4835 17.5708 11.1142C17.3587 10.785 17.2453 10.6332 17.1064 10.4925C16.6072 9.93476 15.927 9.64769 14.839 9.66963C14.6507 9.6934 14.4605 9.71898 14.2722 9.74277C13.7291 9.87991 13.2116 10.1652 12.9081 10.5473C11.9975 11.5804 12.2571 13.3888 13.3652 14.133C14.4568 14.9522 16.0605 15.1387 16.2653 15.9049C16.4646 16.8429 15.5759 17.1464 14.6927 17.0386C14.0418 16.9032 13.6797 16.5723 13.2884 15.9707C12.568 16.3876 12.568 16.3876 11.8275 16.8136C12.003 17.1976 12.1877 17.3713 12.4821 17.7041C13.8754 19.1176 17.3624 19.0481 17.9877 16.9087C18.0133 16.8356 18.1816 16.3455 18.0462 15.5903ZM10.8419 9.78298H9.04261C9.04261 11.3372 9.03531 12.8805 9.03531 14.4347C9.03531 15.424 9.08651 16.3309 8.9256 16.6088C8.6623 17.1555 7.98026 17.0879 7.66941 16.9818C7.35308 16.8264 7.19217 16.6052 7.00566 16.2925C6.95446 16.2029 6.91606 16.1334 6.90324 16.1279C6.41505 16.426 5.92864 16.7258 5.44043 17.0239C5.68364 17.5231 6.04201 17.9564 6.50097 18.238C7.18666 18.6494 8.10824 18.7756 9.07188 18.5544C9.69906 18.3715 10.2403 17.993 10.5237 17.417C10.9333 16.6619 10.8455 15.7476 10.8419 14.7364C10.851 13.0871 10.8419 11.4378 10.8419 9.78298Z" fill="#323330"/>
</g>
<defs>
<clipPath id="clip0_629_10080">
<rect width="19.236" height="19.236" fill="white" transform="translate(0.382324 0.941162)"/>
</clipPath>
</defs>
</svg>
