<svg width="22" height="22" viewBox="0 0 22 22" fill="none" xmlns="http://www.w3.org/2000/svg">
<g clip-path="url(#clip0_629_9812)">
<path d="M11.0836 1.84644L11.4948 2.61882C11.5872 2.76137 11.6875 2.88751 11.805 3.00501C12.1506 3.34628 12.4728 3.71087 12.7692 4.0962C13.4655 5.01028 13.9355 6.0263 14.2707 7.12526C14.472 7.7957 14.5809 8.48515 14.5895 9.18064C14.6232 11.2619 13.9096 13.0486 12.472 14.5338C12.2387 14.7688 11.9855 14.9856 11.716 15.1791C11.5734 15.1791 11.506 15.0703 11.4473 14.9692C11.3402 14.7826 11.2693 14.5778 11.2373 14.3653C11.1864 14.113 11.1535 13.8616 11.17 13.6024V13.4849C11.1587 13.4581 11.0334 1.90605 11.0836 1.84644Z" fill="#599636"/>
<path d="M11.0838 1.82146C11.0674 1.78777 11.0501 1.81282 11.0329 1.8301C11.0415 1.99857 10.9819 2.1489 10.8903 2.29232C10.7892 2.43488 10.6553 2.5446 10.5205 2.6621C9.77492 3.30748 9.18743 4.08851 8.71743 4.96111C8.09106 6.13524 7.7688 7.39404 7.67808 8.72023C7.63661 9.198 7.82927 10.8845 7.98047 11.3709C8.39172 12.6634 9.12954 13.7459 10.0868 14.685C10.3218 14.9114 10.5732 15.1213 10.8324 15.3235C10.9084 15.3235 10.9162 15.2561 10.9335 15.206C10.9672 15.0989 10.9923 14.99 11.0095 14.8794L11.178 13.6215L11.0838 1.82146Z" fill="#6CAC48"/>
<path d="M11.4941 15.689C11.5105 15.4963 11.603 15.3373 11.704 15.1775C11.603 15.136 11.5278 15.0522 11.469 14.9598C11.4181 14.8717 11.3766 14.7792 11.3438 14.6825C11.2263 14.3308 11.2012 13.9602 11.1675 13.6008V13.3831C11.126 13.4168 11.1165 13.7019 11.1165 13.7442C11.0923 14.1252 11.0414 14.5028 10.9653 14.8769C10.9403 15.028 10.9239 15.1792 10.8306 15.3132C10.8306 15.3296 10.8306 15.3469 10.8392 15.3719C10.9904 15.8168 11.0319 16.2696 11.0569 16.7318V16.9003C11.0569 17.1016 11.0483 17.0592 11.2159 17.1266C11.2833 17.1517 11.3584 17.1603 11.4258 17.2104C11.4768 17.2104 11.4846 17.169 11.4846 17.1344L11.4595 16.8571V16.0847C11.4518 15.9499 11.4768 15.816 11.4941 15.689Z" fill="#C0C2BF"/>
<path d="M4.34208 19.436V19.8092C4.34208 19.8242 4.34208 19.8391 4.34473 19.8533C4.34914 19.8974 4.37649 19.9247 4.41618 19.9371C4.45324 19.9468 4.49117 19.9538 4.52911 19.9591C4.55117 19.9618 4.55822 19.9715 4.56087 19.9953C4.56351 20.0791 4.55646 20.0888 4.47529 20.0835C4.2865 20.0738 4.09682 20.0712 3.90803 20.0835H3.89039C3.83127 20.0862 3.82687 20.0809 3.82687 20.0218C3.82687 20.0121 3.82951 19.9997 3.82951 19.99C3.82951 19.9724 3.84187 19.9627 3.85863 19.9627C3.89833 19.9583 3.93449 19.9477 3.97155 19.9406C4.02271 19.9282 4.05271 19.8965 4.05712 19.8444C4.06418 19.788 4.06418 19.7289 4.06418 19.6724L4.06683 19.0143C4.06859 18.9755 4.04742 18.9393 4.01301 18.9208C3.9689 18.8961 3.92126 18.8767 3.87274 18.8617C3.85774 18.8573 3.84362 18.8546 3.83127 18.8467C3.7951 18.829 3.79422 18.7972 3.82863 18.7778C3.84099 18.7708 3.85598 18.7655 3.87009 18.7628C4.01899 18.7408 4.16529 18.7039 4.30679 18.6526C4.33591 18.6429 4.34384 18.6455 4.34649 18.6746C4.34914 18.6923 4.34649 18.7143 4.34384 18.7311C4.33943 18.7628 4.33943 18.7946 4.33943 18.8246C4.33943 18.837 4.34208 18.8493 4.35443 18.8564C4.36679 18.8634 4.37913 18.8564 4.3906 18.8493C4.44177 18.8096 4.49382 18.7734 4.55028 18.7417C4.63144 18.6976 4.71702 18.6579 4.81054 18.6455C4.92346 18.6305 5.02139 18.6605 5.10784 18.7337C5.14313 18.7655 5.17489 18.8017 5.20136 18.8414C5.22606 18.8775 5.2287 18.8784 5.26046 18.8537C5.35398 18.7849 5.45191 18.724 5.55777 18.679C5.66805 18.6323 5.78097 18.6252 5.8939 18.664C6.00947 18.7055 6.08799 18.7867 6.13474 18.8969C6.17444 18.9852 6.1912 19.0769 6.1912 19.1722V19.8303C6.1912 19.8744 6.20885 19.9018 6.25296 19.9238C6.29972 19.9415 6.35088 19.9512 6.40028 19.9609C6.43204 19.968 6.43204 19.968 6.43204 20.0006C6.42764 20.0818 6.41969 20.0862 6.34118 20.0818C6.14432 20.0703 5.94696 20.0703 5.7501 20.0818C5.7104 20.0844 5.7104 20.0844 5.70863 20.0447V20.0323C5.70598 19.9662 5.70599 19.9662 5.77039 19.9512L5.8339 19.9335C5.87802 19.923 5.90978 19.8833 5.90978 19.8374L5.91684 19.653L5.91243 19.1722C5.91066 19.129 5.90184 19.0866 5.88508 19.0469C5.82332 18.8969 5.68834 18.8431 5.55865 18.8581C5.46073 18.8678 5.37427 18.9075 5.2931 18.964C5.27546 18.9764 5.26399 18.9913 5.26576 19.0152C5.28782 19.1722 5.27282 19.3292 5.27546 19.4863V19.8277C5.27546 19.8894 5.30017 19.9185 5.35927 19.9335L5.4722 19.9583C5.48984 19.9609 5.49955 19.968 5.49955 19.9874V20.005C5.4969 20.0738 5.49249 20.0765 5.42368 20.0765C5.22694 20.0668 5.03109 20.0694 4.837 20.0765C4.77084 20.0791 4.76555 20.0721 4.76819 20.005C4.77084 19.9653 4.77524 19.9635 4.8123 19.9556L4.89346 19.9406C4.96493 19.9256 4.99139 19.8991 4.99669 19.8224L5.00374 19.6574L4.99933 19.1643C4.99492 19.1025 4.98169 19.0443 4.94816 18.9878C4.89876 18.8969 4.822 18.8502 4.71702 18.8458C4.61115 18.8387 4.51852 18.8775 4.42942 18.9269C4.36766 18.9631 4.3412 19.0055 4.34561 19.0769V19.4351L4.34208 19.436ZM8.96753 19.451V19.7968C8.96753 19.8215 8.9693 19.8462 8.97195 19.87C8.97371 19.9035 8.99841 19.9318 9.03106 19.9388C9.0734 19.9512 9.11663 19.9582 9.16074 19.9609C9.18545 19.9635 9.18986 19.9733 9.1925 19.9927V20.0103C9.18986 20.0959 9.18015 20.1065 9.09634 20.1012C8.90931 20.0888 8.72316 20.0915 8.53701 20.1012L8.46556 20.1038C8.45056 20.1038 8.44791 20.0968 8.4435 20.0862C8.43645 20.0521 8.43645 20.017 8.4435 19.983C8.44615 19.968 8.45586 19.9653 8.47085 19.9609C8.50702 19.9565 8.53702 19.9485 8.57142 19.9432C8.63318 19.9283 8.65523 19.9035 8.657 19.84L8.66406 19.6336V19.0293C8.66406 18.9852 8.64641 18.9578 8.6076 18.9384C8.56348 18.9137 8.51672 18.8969 8.46732 18.8793C8.45232 18.8749 8.43821 18.8696 8.42585 18.8617C8.39409 18.8396 8.38969 18.8078 8.42145 18.7831C8.43556 18.7717 8.45232 18.7646 8.47085 18.7637C8.62788 18.739 8.78051 18.7046 8.92783 18.6455C8.94548 18.6385 8.95254 18.6429 8.95959 18.6579C8.96664 18.6729 8.9693 18.6896 8.96665 18.7073L8.95959 18.8228C8.95959 18.8378 8.95254 18.859 8.96401 18.8643C8.97901 18.874 8.98872 18.8519 9.00106 18.8467C9.0734 18.7858 9.1535 18.7347 9.23926 18.6949C9.31513 18.6587 9.39365 18.6358 9.48187 18.6411C9.64684 18.6508 9.76418 18.7346 9.84005 18.8793C9.87975 18.9552 9.89651 19.039 9.90357 19.1246L9.91063 19.3045L9.91327 19.8471C9.91592 19.8886 9.93091 19.9159 9.97238 19.9309C10.0156 19.945 10.0598 19.9556 10.1047 19.9627C10.1444 19.9671 10.1462 19.975 10.1488 20.0121V20.0244C10.1444 20.1082 10.1391 20.11 10.0553 20.1056C9.87223 20.0959 9.68877 20.0959 9.50569 20.1056C9.48098 20.1082 9.45629 20.1056 9.43423 20.1082C9.41923 20.1082 9.40952 20.1056 9.40688 20.0906C9.40247 20.0588 9.39717 20.0271 9.40423 19.9927C9.40688 19.9777 9.41393 19.9706 9.43158 19.9679L9.54451 19.9503C9.58421 19.9406 9.60626 19.9141 9.61067 19.8789L9.61508 19.81L9.61244 19.2966C9.61244 19.2375 9.60979 19.1784 9.59744 19.1201C9.56833 18.994 9.47217 18.9049 9.34248 18.8916C9.22956 18.8793 9.12722 18.9093 9.03282 18.9702C8.98606 18.9993 8.96665 19.0416 8.96665 19.0928V19.4633C8.96665 19.4563 8.96665 19.4563 8.9693 19.4563L8.96753 19.451Z" fill="#47474A"/>
<path d="M16.1563 18.7575C16.129 18.5784 16.0628 18.4187 15.9473 18.2784C15.8467 18.1549 15.717 18.0588 15.5688 17.9988C15.4144 17.9353 15.2494 17.915 15.0827 17.9106C15.0139 17.9079 14.0761 17.9229 14.0073 17.9106C13.9896 17.9079 13.9781 17.9132 13.9676 17.9282C13.9552 17.9459 13.9429 17.9653 13.9358 17.9847C13.9067 18.0508 13.9067 18.0464 13.9773 18.0561C14.0364 18.0658 14.0928 18.0711 14.1493 18.0879C14.2005 18.1055 14.2375 18.1346 14.2499 18.1911C14.2543 18.2185 14.2596 19.0821 14.2596 19.4844L14.2499 19.772C14.2472 19.7941 14.2455 19.8161 14.2375 19.8356C14.2278 19.8647 14.2102 19.8894 14.1811 19.9017C14.1484 19.9167 14.114 19.9264 14.0778 19.9291C14.0117 19.9361 14.002 19.9388 13.9799 20.0129L13.9728 20.0402C13.9684 20.072 13.9702 20.0773 14.002 20.0773L14.736 20.0843L15.0236 20.0799L15.2221 20.0552C15.4479 20.0138 15.6491 19.9202 15.8211 19.7703C15.919 19.6838 15.9993 19.5788 16.0566 19.4606C16.1255 19.323 16.1546 19.173 16.1625 19.0213C16.1757 18.9339 16.1713 18.8457 16.1563 18.7575ZM15.8008 19.106C15.7911 19.263 15.7593 19.4156 15.6782 19.5524C15.575 19.7315 15.4276 19.8567 15.2238 19.9008C15.1356 19.9185 15.0474 19.9282 14.9548 19.9158C14.8886 19.9088 14.8251 19.9008 14.7633 19.8788C14.653 19.8391 14.6133 19.7712 14.6116 19.6635L14.6089 18.1832C14.6089 18.0949 14.6486 18.0755 14.7121 18.0729C14.8083 18.0658 14.9062 18.0685 15.0015 18.0773C15.1038 18.087 15.2035 18.1117 15.2988 18.1488C15.3694 18.1779 15.4347 18.2185 15.4929 18.2687C15.6252 18.3817 15.7135 18.5237 15.762 18.6904C15.8017 18.8254 15.8087 18.963 15.8017 19.1007L15.8008 19.106ZM18.1969 19.3468C18.1969 19.3318 18.1969 19.3195 18.1943 19.3053C18.1722 19.1704 18.1007 19.0671 17.9905 18.9886C17.919 18.9375 17.8387 18.9031 17.7549 18.8784C17.7399 18.8739 17.7276 18.8686 17.7134 18.866C17.7161 18.8536 17.7231 18.851 17.7311 18.8484C17.7805 18.8236 17.8272 18.7972 17.8687 18.7601C17.9446 18.6966 17.9949 18.6181 18.0205 18.5219C18.0355 18.4708 18.0355 18.4187 18.0302 18.3649C18.0222 18.237 17.9561 18.1196 17.8511 18.0455C17.7381 17.9617 17.6058 17.9273 17.4682 17.9256C17.2026 17.9212 16.9353 17.9256 16.6707 17.9256C16.5948 17.9256 16.5189 17.93 16.4395 17.9185C16.4245 17.9159 16.4034 17.9114 16.3928 17.9282C16.3751 17.96 16.3531 17.9917 16.346 18.0288C16.3434 18.0464 16.3487 18.0561 16.3681 18.0579L16.5375 18.0826C16.6036 18.0923 16.6504 18.1293 16.6557 18.1885C16.6601 18.229 16.6627 18.2705 16.6627 18.3111L16.6583 18.7698L16.6557 19.6776C16.6557 19.7315 16.6486 19.7835 16.638 19.8373C16.6327 19.8726 16.608 19.9008 16.5745 19.9105C16.5251 19.9255 16.4783 19.9397 16.4272 19.9397C16.3989 19.937 16.3725 19.9547 16.3637 19.9811C16.354 20.0032 16.346 20.0279 16.3416 20.0499C16.3372 20.0791 16.3442 20.0896 16.3734 20.0861C16.3954 20.0835 17.2053 20.1038 17.3579 20.0888C17.4488 20.0791 17.5379 20.0667 17.6279 20.0394C17.7823 19.9899 17.9252 19.9194 18.0381 19.7985C18.1316 19.7006 18.1854 19.5824 18.1898 19.4447C18.1969 19.413 18.1969 19.3812 18.1969 19.3468ZM17.0059 18.3402L17.013 18.1435C17.013 18.1064 17.028 18.0896 17.0641 18.0817C17.1232 18.0694 17.1823 18.0747 17.2406 18.0773C17.2997 18.0817 17.3561 18.0897 17.4153 18.1064C17.5229 18.1382 17.6067 18.1999 17.6561 18.3031C17.6782 18.3499 17.6905 18.4011 17.6905 18.4531C17.6932 18.5219 17.6879 18.5881 17.6614 18.6543C17.6199 18.7451 17.5538 18.8043 17.4576 18.821C17.3614 18.8387 17.0897 18.8307 17.0474 18.8307C17.0103 18.8307 17.0077 18.8263 17.0077 18.7892V18.5581C17.0015 18.4867 17.0015 18.4143 17.005 18.342L17.0059 18.3402ZM17.8034 19.6609C17.762 19.7712 17.6852 19.8479 17.5776 19.8894C17.5185 19.9114 17.4594 19.9255 17.3976 19.9211C17.3217 19.9185 17.2459 19.9211 17.1691 19.9061C17.0659 19.8841 17.0191 19.7861 17.0121 19.7147C16.9997 19.5894 17.0077 19.4615 17.005 19.3689V19.0451C17.005 19.0054 17.0094 18.9939 17.0518 18.9939L17.2829 18.9966L17.44 19.0142C17.5502 19.0389 17.6508 19.0804 17.7293 19.166C17.7928 19.2348 17.8272 19.3177 17.8352 19.4086C17.8422 19.4941 17.8378 19.578 17.8061 19.6591L17.8034 19.6609Z" fill="#C0C2BF"/>
<path d="M11.5664 18.9207L11.6299 18.9304C11.6987 18.9331 11.7799 18.9084 11.8046 18.8122C11.8178 18.7664 11.8178 18.7177 11.8046 18.6719C11.7896 18.6719 11.7825 18.6843 11.7755 18.6896C11.7384 18.7187 11.697 18.7363 11.6529 18.7407C11.5646 18.7504 11.4764 18.7451 11.3899 18.7134L11.27 18.6719C11.1862 18.6446 11.0979 18.6331 11.0097 18.6375C10.8844 18.6472 10.7671 18.6887 10.656 18.7478C10.5377 18.8113 10.4548 18.9075 10.4151 19.0372C10.393 19.113 10.3904 19.1915 10.4001 19.2701C10.4248 19.4492 10.5183 19.5744 10.6851 19.6406C10.6948 19.6432 10.7027 19.6477 10.7124 19.6503C10.7345 19.6627 10.7371 19.675 10.7168 19.6918L10.6551 19.7332L10.5077 19.8241C10.4707 19.8461 10.4663 19.8638 10.4786 19.9026C10.4936 19.9485 10.5201 19.9891 10.5571 20.0208C10.5907 20.0499 10.6286 20.0729 10.6701 20.0896C10.6974 20.102 10.6974 20.1073 10.6727 20.1293L10.5324 20.2299C10.4857 20.2661 10.4389 20.3014 10.4001 20.3481C10.3728 20.3772 10.3531 20.4125 10.3428 20.451C10.3325 20.4895 10.3319 20.5299 10.341 20.5687C10.3595 20.6543 10.4036 20.731 10.4689 20.7892C10.5326 20.8485 10.6103 20.8907 10.6948 20.9119C10.8324 20.9516 10.9744 20.9533 11.1147 20.9269C11.3158 20.8898 11.4923 20.8007 11.6299 20.6499C11.7261 20.5493 11.7817 20.4311 11.7869 20.2908C11.7984 20.1223 11.6855 19.9714 11.5214 19.9326L11.3891 19.9079L10.9841 19.8717C10.94 19.8691 10.8959 19.862 10.8589 19.84C10.8121 19.8109 10.7997 19.7544 10.8297 19.7173C10.8518 19.69 10.8792 19.6732 10.9135 19.6706L10.9921 19.6635C11.1472 19.6478 11.2929 19.5814 11.4067 19.4747C11.4675 19.4184 11.5109 19.3458 11.532 19.2657C11.5611 19.1598 11.5611 19.0504 11.5364 18.9428C11.5293 18.9154 11.532 18.9136 11.5655 18.9181L11.5664 18.9207ZM10.9647 20.1435C10.9797 20.1461 10.9938 20.1435 11.0088 20.1435C11.1121 20.1479 11.2179 20.1558 11.3185 20.1832C11.3511 20.1929 11.3838 20.2052 11.4146 20.2202C11.5126 20.274 11.5496 20.3675 11.5373 20.4681C11.5223 20.5784 11.4614 20.6569 11.3652 20.709C11.3017 20.7451 11.2303 20.7601 11.1562 20.7681C11.1288 20.7707 11.105 20.7681 11.0776 20.7681C10.9921 20.7707 10.9083 20.761 10.8271 20.7266C10.7706 20.7045 10.7239 20.6728 10.6824 20.6287C10.5968 20.5431 10.5563 20.3861 10.6851 20.2581C10.7636 20.1849 10.8518 20.1338 10.9647 20.1435ZM11.2453 19.3777C11.1941 19.5074 11.0803 19.5471 10.9682 19.5294C10.865 19.5144 10.7892 19.458 10.7398 19.3645C10.6762 19.2392 10.6586 19.1095 10.6956 18.9745C10.723 18.874 10.7839 18.7981 10.8924 18.7804C11.03 18.7557 11.1615 18.8051 11.2312 18.9428C11.2673 19.0089 11.2823 19.0901 11.2823 19.2057C11.2797 19.2524 11.27 19.3159 11.2453 19.3777ZM8.15222 19.2101C8.13016 19.0777 8.08076 18.9569 7.98988 18.8563C7.85491 18.7063 7.68288 18.641 7.48879 18.6402C7.31941 18.6375 7.15972 18.6869 7.01769 18.7751C6.87741 18.8589 6.77509 18.993 6.73008 19.151C6.68862 19.293 6.69038 19.4386 6.72303 19.5833C6.8086 19.9714 7.10856 20.1382 7.46673 20.1135C7.5726 20.1064 7.67318 20.072 7.76846 20.0252C7.91049 19.9591 8.01371 19.8532 8.08517 19.7138C8.14163 19.5983 8.16633 19.4756 8.16369 19.3353L8.15222 19.2101ZM7.80374 19.7553C7.76758 19.8682 7.66876 19.9494 7.55055 19.9617C7.44291 19.9767 7.34147 19.9494 7.25148 19.8858C7.1862 19.8373 7.13326 19.7747 7.09709 19.7015C6.99652 19.495 6.97887 19.2798 7.03092 19.0583C7.04768 18.9895 7.08297 18.9278 7.13414 18.8792C7.225 18.7954 7.33088 18.776 7.44821 18.8007C7.56113 18.8254 7.64671 18.8863 7.71728 18.9798C7.78786 19.0733 7.8205 19.181 7.83992 19.2939C7.84962 19.3503 7.84962 19.4094 7.85227 19.4456C7.85227 19.5638 7.84256 19.6609 7.8055 19.7553H7.80374ZM13.5161 19.2304C13.4984 19.0883 13.4446 18.9578 13.3441 18.8501C13.2117 18.7054 13.0397 18.6437 12.8483 18.641C12.6833 18.6384 12.5315 18.6852 12.3913 18.7663C12.2342 18.8598 12.1257 18.9922 12.0843 19.1713C12.0348 19.3671 12.0551 19.5735 12.1434 19.7553C12.2245 19.9273 12.3622 20.0376 12.5439 20.087C12.745 20.1408 12.9365 20.1161 13.1235 20.0252C13.2858 19.9467 13.4005 19.8241 13.4676 19.6574C13.5073 19.5594 13.5214 19.4536 13.524 19.3309C13.5258 19.3089 13.5205 19.2692 13.5161 19.2304ZM13.1773 19.7235C13.1376 19.8559 13.0547 19.9423 12.9144 19.9617C12.8112 19.9767 12.7133 19.952 12.625 19.8929C12.5492 19.8417 12.4954 19.7729 12.4557 19.6918C12.4116 19.6062 12.3869 19.5153 12.3772 19.4218C12.3622 19.3062 12.3622 19.1933 12.3895 19.0777C12.3948 19.0548 12.4019 19.0327 12.4116 19.0116C12.4804 18.8395 12.6321 18.761 12.8121 18.8007C12.9321 18.8281 13.0229 18.8942 13.0917 18.9948C13.1579 19.0927 13.1897 19.2013 13.2047 19.3177C13.2117 19.3645 13.2144 19.4139 13.2117 19.4553C13.2117 19.5515 13.2047 19.6397 13.1756 19.7253L13.1773 19.7235Z" fill="#47474A"/>
</g>
<defs>
<clipPath id="clip0_629_9812">
<rect width="21.6" height="21.6003" fill="white" transform="translate(0.200439 0.20105)"/>
</clipPath>
</defs>
</svg>
