<svg width="24" height="24" viewBox="0 0 24 24" fill="none" xmlns="http://www.w3.org/2000/svg">
<rect width="24" height="24" rx="6.4" fill="#DBDEFF"/>
<g clip-path="url(#clip0_629_10593)">
<path d="M12.4076 9.51938C13.548 9.51938 14.4725 8.59491 14.4725 7.45452C14.4725 6.31412 13.548 5.38965 12.4076 5.38965C11.2672 5.38965 10.3428 6.31412 10.3428 7.45452C10.3428 8.59491 11.2672 9.51938 12.4076 9.51938Z" fill="#7B83EB"/>
<path opacity="0.1" d="M12.2598 7.89697H10.3896L10.3989 7.93812L10.3998 7.94166L10.4096 7.97971C10.5454 8.49502 10.8752 8.93792 11.3298 9.21592C11.7845 9.49392 12.329 9.58553 12.8496 9.47162V8.48675C12.8491 8.33047 12.7869 8.18073 12.6764 8.07023C12.5659 7.95973 12.4161 7.89744 12.2598 7.89697Z" fill="black"/>
<path opacity="0.2" d="M11.817 8.33936H10.541C10.7085 8.69243 10.9727 8.99074 11.303 9.19962C11.6332 9.4085 12.016 9.51936 12.4068 9.51934V8.92913C12.4063 8.77285 12.344 8.62311 12.2335 8.51261C12.123 8.40211 11.9733 8.33982 11.817 8.33936Z" fill="black"/>
<path d="M17.0524 9.66666C17.9077 9.66666 18.601 8.97336 18.601 8.11812C18.601 7.26289 17.9077 6.56958 17.0524 6.56958C16.1972 6.56958 15.5039 7.26289 15.5039 8.11812C15.5039 8.97336 16.1972 9.66666 17.0524 9.66666Z" fill="#5059C9"/>
<path d="M18.3792 10.109H14.9012C14.8261 10.109 14.7541 10.1388 14.701 10.1919C14.6479 10.245 14.6181 10.3171 14.6181 10.3922V13.9804C14.6085 14.4997 14.7776 15.0065 15.0971 15.416C15.4166 15.8255 15.8672 16.1128 16.3732 16.2297C16.6955 16.2974 17.0289 16.2923 17.349 16.2148C17.6691 16.1373 17.9678 15.9895 18.2236 15.782C18.4793 15.5745 18.6856 15.3125 18.8273 15.0153C18.969 14.718 19.0427 14.3929 19.0429 14.0635V10.7727C19.0429 10.5967 18.973 10.4279 18.8485 10.3034C18.7241 10.1789 18.5553 10.109 18.3792 10.109Z" fill="#5059C9"/>
<path d="M15.9457 10.7727V14.9758C15.9462 15.7548 15.6895 16.5121 15.2155 17.1302C14.7415 17.7484 14.0768 18.1928 13.3244 18.3945C12.5721 18.5962 11.7741 18.5439 11.0545 18.2458C10.3349 17.9476 9.73381 17.4203 9.34453 16.7456C9.2594 16.6041 9.18543 16.4562 9.12331 16.3032C9.0654 16.1589 9.01664 16.0111 8.97731 15.8607C8.90437 15.5714 8.86722 15.2742 8.8667 14.9758V10.7727C8.86658 10.6855 8.88367 10.5991 8.91698 10.5186C8.95029 10.438 8.99917 10.3648 9.06082 10.3031C9.12247 10.2415 9.19568 10.1926 9.27625 10.1593C9.35682 10.126 9.44317 10.1089 9.53036 10.109H15.2821C15.3693 10.1089 15.4556 10.126 15.5362 10.1593C15.6168 10.1926 15.69 10.2415 15.7516 10.3031C15.8133 10.3648 15.8621 10.438 15.8955 10.5186C15.9288 10.5991 15.9459 10.6855 15.9457 10.7727Z" fill="#7B83EB"/>
<path opacity="0.2" d="M11.817 8.33936H10.541C10.7085 8.69243 10.9727 8.99074 11.303 9.19962C11.6332 9.4085 12.016 9.51936 12.4068 9.51934V8.92913C12.4063 8.77285 12.344 8.62311 12.2335 8.51261C12.123 8.40211 11.9733 8.33982 11.817 8.33936Z" fill="black"/>
<path opacity="0.1" d="M12.8487 10.109V15.7147C12.8487 15.8481 12.803 15.9775 12.7193 16.0813C12.6356 16.1851 12.5189 16.2572 12.3885 16.2855C12.3469 16.2979 12.3036 16.3038 12.2602 16.3032H9.12331C9.0654 16.1589 9.01664 16.0111 8.97731 15.8607C8.90437 15.5714 8.86722 15.2742 8.8667 14.9758V10.7727C8.86658 10.6855 8.88367 10.5991 8.91698 10.5186C8.95029 10.438 8.99917 10.3648 9.06082 10.3031C9.12247 10.2415 9.19568 10.1926 9.27625 10.1593C9.35682 10.126 9.44317 10.1089 9.53036 10.109H12.8487Z" fill="black"/>
<path opacity="0.2" d="M12.4062 10.109V16.1572C12.4069 16.2006 12.4009 16.2438 12.3885 16.2855C12.3602 16.4158 12.2882 16.5325 12.1843 16.6163C12.0805 16.7 11.9512 16.7456 11.8178 16.7456H9.34453C9.2594 16.6041 9.18543 16.4562 9.12331 16.3032C9.0654 16.1589 9.01664 16.0111 8.97731 15.8607C8.90437 15.5714 8.86722 15.2742 8.8667 14.9758V10.7727C8.86658 10.6855 8.88367 10.5991 8.91698 10.5186C8.95029 10.438 8.99917 10.3648 9.06082 10.3031C9.12247 10.2415 9.19568 10.1926 9.27625 10.1593C9.35682 10.126 9.44317 10.1089 9.53036 10.109H12.4062Z" fill="black"/>
<path opacity="0.2" d="M12.4062 10.109V15.2723C12.4055 15.4281 12.3433 15.5774 12.2331 15.6876C12.1229 15.7978 11.9736 15.86 11.8178 15.8607H8.97731C8.90437 15.5714 8.86722 15.2742 8.8667 14.9758V10.7727C8.86658 10.6855 8.88367 10.5991 8.91698 10.5186C8.95029 10.438 8.99917 10.3648 9.06082 10.3031C9.12247 10.2415 9.19568 10.1926 9.27625 10.1593C9.35682 10.126 9.44317 10.1089 9.53036 10.109H12.4062Z" fill="black"/>
<path opacity="0.2" d="M9.53036 10.109C9.44317 10.1089 9.35682 10.126 9.27625 10.1593C9.19568 10.1926 9.12247 10.2415 9.06082 10.3031C8.99917 10.3648 8.95029 10.438 8.91698 10.5186C8.88367 10.5991 8.86658 10.6855 8.8667 10.7727V14.9758C8.86722 15.2742 8.90437 15.5714 8.97731 15.8607H11.3753C11.5312 15.86 11.6805 15.7978 11.7907 15.6876C11.9009 15.5774 11.9631 15.4281 11.9638 15.2723V10.109H9.53036Z" fill="black"/>
<path d="M5.47454 8.33948H11.374C11.5304 8.33948 11.6805 8.40161 11.7911 8.51222C11.9017 8.62282 11.9638 8.77283 11.9638 8.92925V14.8287C11.9638 14.9852 11.9017 15.1352 11.7911 15.2458C11.6805 15.3564 11.5304 15.4185 11.374 15.4185H5.47454C5.31812 15.4185 5.16811 15.3564 5.05751 15.2458C4.9469 15.1352 4.88477 14.9852 4.88477 14.8287V8.92925C4.88477 8.77283 4.9469 8.62282 5.05751 8.51222C5.16811 8.40161 5.31812 8.33948 5.47454 8.33948Z" fill="#4B53BC"/>
<path d="M10.1859 10.5404H8.86299V14.0888H7.99492V10.5404H6.66406V9.66882H10.1859V10.5404Z" fill="white"/>
</g>
<defs>
<clipPath id="clip0_629_10593">
<rect width="14.4" height="14.1581" fill="white" transform="translate(4.80029 4.80005)"/>
</clipPath>
</defs>
</svg>
