<svg width="20" height="21" viewBox="0 0 20 21" fill="none" xmlns="http://www.w3.org/2000/svg">
<g clip-path="url(#clip0_629_10086)">
<path d="M0.383789 10.5586V2.94055C0.383789 1.83598 1.27922 0.940552 2.38379 0.940552H17.6198C18.7244 0.940552 19.6198 1.83598 19.6198 2.94055V18.1766C19.6198 19.2811 18.7244 20.1765 17.6198 20.1765H0.383789" fill="#D3F2FF"/>
<path d="M4.60059 10.5938V11.3777H7.10127V18.495H8.87579V11.3777H11.3765V10.6082C11.3765 10.1754 11.3765 9.82437 11.3572 9.81475C11.3572 9.80032 9.83278 9.79552 7.98131 9.79552L4.61501 9.80994V10.5986L4.60059 10.5938ZM15.8392 9.79071C16.3297 9.90612 16.7048 10.1273 17.0415 10.4784C17.2194 10.6708 17.4839 11.0074 17.5031 11.0939C17.5031 11.1228 16.6712 11.6855 16.1662 11.998C16.147 12.0125 16.0701 11.9307 15.9931 11.8057C15.743 11.4498 15.4882 11.2959 15.089 11.2671C14.5119 11.2286 14.1272 11.5316 14.1272 12.0365C14.1272 12.1904 14.1561 12.277 14.2138 12.402C14.3436 12.6665 14.5841 12.8252 15.3295 13.1522C16.7048 13.7437 17.3012 14.1332 17.6618 14.6911C18.0706 15.3162 18.162 16.2973 17.8879 17.0331C17.5801 17.8362 16.8299 18.3796 15.7575 18.5575C15.4208 18.6152 14.6514 18.6056 14.2907 18.5431C13.5213 18.3988 12.7855 18.0141 12.3335 17.5188C12.1555 17.3264 11.8141 16.8118 11.8333 16.7782L12.0161 16.6628L12.7374 16.2444L13.2808 15.927L13.4059 16.0953C13.5646 16.3454 13.9204 16.682 14.1272 16.7974C14.7524 17.1196 15.5891 17.0763 16.0027 16.7012C16.1807 16.5377 16.2576 16.3646 16.2576 16.1242C16.2576 15.9029 16.2239 15.802 16.1133 15.6336C15.9594 15.422 15.6517 15.2489 14.786 14.8642C13.7906 14.441 13.3674 14.1717 12.9731 13.7581C12.747 13.5081 12.5402 13.1185 12.4441 12.7963C12.3719 12.5174 12.3479 11.8345 12.4152 11.5604C12.622 10.5986 13.3482 9.92536 14.3869 9.733C14.7235 9.66567 15.517 9.69453 15.8488 9.78109L15.8392 9.79071Z" fill="black"/>
</g>
<defs>
<clipPath id="clip0_629_10086">
<rect width="19.236" height="19.236" fill="white" transform="translate(0.382324 0.941162)"/>
</clipPath>
</defs>
</svg>
